<?xml version="1.0" standalone="no"?>
<!DOCTYPE svg PUBLIC "-//W3C//DTD SVG 20010904//EN"
 "http://www.w3.org/TR/2001/REC-SVG-20010904/DTD/svg10.dtd">
<svg version="1.0" xmlns="http://www.w3.org/2000/svg"
 width="700.000000pt" height="700.000000pt" viewBox="0 0 700.000000 700.000000"
 preserveAspectRatio="xMidYMid meet">
<metadata>
Created by potrace 1.14, written by Peter Selinger 2001-2017
</metadata>
<g transform="translate(0.000000,700.000000) scale(0.100000,-0.100000)"
fill="#000000" stroke="none">
<path d="M4560 5394 c0 -6 -19 -9 -49 -7 -41 3 -50 1 -54 -14 -4 -17 -5 -17
-6 0 0 9 -6 17 -12 17 -5 0 -7 -6 -3 -12 5 -9 2 -9 -9 1 -20 16 -23 1 -4 -18
10 -11 8 -11 -10 -2 -13 6 -33 16 -45 22 -19 9 -21 9 -10 -2 16 -17 15 -26 -3
-26 -8 0 -11 5 -8 11 4 6 -1 5 -10 -3 -14 -11 -20 -11 -34 0 -11 10 -14 10 -9
2 5 -9 0 -13 -14 -13 -12 0 -18 -4 -15 -10 3 -5 1 -10 -4 -10 -6 0 -11 4 -11
10 0 5 -7 7 -15 4 -8 -4 -15 -14 -15 -23 0 -13 -2 -13 -9 -2 -7 11 -9 11 -14
0 -4 -11 -6 -11 -6 -1 -1 10 -5 10 -17 -2 -21 -22 -40 -20 -23 2 12 14 10 14
-8 -2 -12 -10 -21 -22 -20 -26 1 -4 -2 -8 -8 -9 -5 -1 -10 3 -10 8 0 5 -4 13
-9 18 -5 4 -6 3 -3 -3 4 -7 1 -17 -7 -23 -11 -9 -15 -9 -20 1 -3 7 -4 3 -2 -9
3 -16 0 -20 -12 -16 -11 5 -13 2 -8 -8 4 -8 0 -5 -8 5 -16 19 -16 19 -16 -5 0
-17 -3 -20 -9 -10 -5 7 -14 10 -20 7 -6 -4 -8 -12 -5 -18 4 -6 2 -8 -4 -4 -6
3 -14 1 -17 -5 -4 -5 -13 -8 -21 -5 -8 3 -15 1 -15 -4 -1 -6 -2 -14 -3 -19 0
-5 -4 -13 -8 -17 -4 -3 -5 4 -3 17 l4 24 -20 -25 c-11 -14 -17 -19 -13 -11 5
9 3 12 -4 7 -7 -4 -12 -14 -12 -21 0 -10 -6 -12 -17 -8 -16 6 -17 5 -3 -12 12
-15 12 -17 1 -10 -9 5 -19 2 -28 -10 -7 -11 -13 -14 -13 -9 0 6 5 15 12 22 9
9 9 12 1 12 -7 0 -15 -9 -18 -20 -7 -22 -25 -28 -25 -8 0 6 -3 8 -6 5 -4 -4
-1 -13 5 -21 10 -12 8 -14 -13 -12 -18 2 -23 -1 -18 -12 4 -12 0 -14 -17 -9
-18 4 -20 3 -10 -9 9 -11 8 -14 -4 -14 -19 0 -40 -33 -29 -46 4 -5 -1 -2 -10
5 -16 12 -18 11 -18 -5 0 -16 -2 -17 -10 -4 -9 13 -10 13 -11 0 -1 -8 -1 -19
0 -24 1 -5 -7 -6 -19 -3 -11 3 -23 0 -27 -5 -3 -7 -1 -8 5 -4 7 4 10 -1 9 -14
-1 -18 -15 -25 -39 -21 -5 0 -8 -6 -8 -15 0 -9 5 -12 12 -8 7 4 8 3 4 -4 -4
-7 -16 -12 -27 -12 -10 0 -19 -5 -19 -11 0 -5 4 -8 8 -5 5 3 9 -1 9 -8 0 -8
-9 -12 -21 -10 -12 3 -15 1 -8 -2 9 -4 0 -18 -28 -44 -25 -23 -37 -41 -30 -45
15 -9 2 -25 -15 -18 -15 5 -18 -5 -18 -52 1 -19 1 -19 -14 0 -14 19 -15 19 -8
-4 5 -16 4 -21 -4 -17 -10 7 -17 -22 -12 -48 1 -5 -5 -3 -14 4 -13 11 -14 10
-9 -5 6 -14 4 -16 -7 -10 -12 7 -12 6 -1 -7 10 -13 10 -17 0 -21 -11 -4 -10
-7 0 -15 11 -7 10 -11 -3 -16 -10 -3 -23 -2 -30 4 -10 8 -15 8 -21 -1 -4 -7
-3 -9 3 -6 5 3 10 0 10 -8 0 -13 -3 -13 -18 1 -10 9 -15 23 -13 32 3 10 -1 6
-9 -7 -12 -20 -15 -21 -20 -7 -5 11 -3 15 5 10 7 -5 8 -3 3 5 -5 9 -10 10 -18
2 -12 -12 -51 5 -42 20 4 5 -1 9 -10 9 -10 0 -13 -5 -9 -12 5 -8 1 -8 -12 2
-29 22 -30 24 -12 17 10 -3 19 -3 22 1 7 12 -36 12 -50 1 -8 -7 -15 -6 -20 2
-4 8 -3 9 4 5 7 -4 12 -1 12 8 0 20 -5 20 -23 1 -13 -13 -16 -13 -21 1 -3 8
-2 12 3 9 5 -3 12 -2 15 3 2 4 -19 8 -47 7 -40 -1 -58 4 -80 22 -28 22 -53 31
-43 15 6 -10 -25 -9 -42 2 -6 4 -12 4 -12 -1 0 -4 -5 -1 -10 7 -9 13 -11 13
-20 0 -5 -8 -10 -10 -10 -5 0 6 4 15 10 21 12 12 -29 13 -47 1 -6 -4 -13 -1
-16 5 -3 10 -9 10 -27 0 -12 -8 -19 -9 -16 -3 5 7 -7 9 -33 7 -27 -2 -45 2
-53 11 -10 12 -14 11 -30 -9 -16 -22 -17 -22 -14 -2 3 12 -1 21 -9 21 -8 0
-11 -7 -7 -16 5 -14 3 -14 -11 -2 -11 9 -17 10 -17 2 0 -6 -5 -11 -11 -11 -5
0 -8 4 -4 9 3 5 1 12 -4 15 -5 4 -13 1 -17 -5 -4 -8 -3 -9 4 -5 8 5 10 1 5
-10 -5 -14 -8 -13 -19 7 -8 15 -13 18 -14 9 0 -17 -51 -22 -62 -5 -5 6 -8 6
-8 -2 0 -7 -5 -13 -11 -13 -5 0 -7 5 -4 10 3 6 1 10 -4 10 -6 0 -11 -8 -12
-17 0 -12 -2 -13 -6 -5 -4 10 -8 10 -21 0 -12 -10 -14 -10 -8 0 4 7 1 12 -9
12 -10 0 -13 -5 -9 -12 5 -7 3 -8 -7 -2 -20 12 -40 14 -33 3 3 -5 11 -6 17 -2
7 4 6 0 -2 -10 -15 -18 -26 -23 -16 -7 3 6 2 10 -4 10 -5 0 -11 -5 -13 -12 -3
-7 -7 -5 -11 6 -5 11 -3 15 5 10 7 -4 8 -3 4 4 -11 19 -29 14 -24 -6 3 -10 0
-19 -6 -19 -6 -1 -25 -3 -43 -6 -18 -2 -34 0 -37 7 -3 8 -5 7 -5 -1 -1 -7 -11
-10 -26 -7 -14 2 -25 0 -25 -6 0 -6 4 -9 9 -5 5 3 13 0 17 -6 4 -8 3 -9 -4 -5
-7 4 -12 2 -12 -5 0 -8 -5 -6 -12 4 -10 13 -17 14 -28 6 -12 -9 -11 -10 5 -4
16 5 18 4 7 -7 -10 -10 -16 -10 -33 0 -19 12 -19 12 -8 -10 10 -19 10 -21 -2
-12 -8 6 -22 14 -32 17 -15 6 -16 4 -6 -16 6 -12 8 -19 4 -15 -4 4 -17 2 -29
-4 -20 -11 -20 -10 -6 8 11 14 8 13 -11 -3 -15 -14 -34 -21 -47 -18 -12 2 -25
-1 -28 -7 -4 -7 -2 -8 4 -4 7 4 12 3 12 -2 0 -5 -9 -12 -20 -15 -11 -3 -18 -2
-16 2 3 4 -4 7 -14 7 -10 0 -18 -3 -18 -6 1 -3 -2 -13 -7 -23 -6 -14 -10 -15
-22 -6 -11 10 -13 10 -11 -1 2 -7 -3 -15 -11 -18 -9 -3 -11 0 -6 8 5 9 4 11
-3 6 -7 -4 -12 -15 -12 -24 0 -12 -3 -13 -8 -5 -11 17 -55 -14 -48 -33 4 -11
1 -12 -13 -5 -21 12 -32 5 -24 -15 3 -9 -2 -12 -17 -9 -19 4 -20 2 -8 -12 8
-10 8 -14 1 -10 -6 4 -15 2 -18 -4 -4 -5 -13 -8 -20 -5 -16 6 -39 -19 -30 -33
3 -7 0 -8 -9 -5 -16 6 -23 -10 -8 -19 4 -2 2 -2 -5 -1 -6 2 -14 -2 -17 -9 -3
-7 -3 -2 0 10 5 20 1 19 -28 -10 -18 -17 -31 -36 -30 -41 5 -14 -31 -47 -45
-42 -7 3 -12 0 -10 -7 1 -7 -4 -11 -12 -9 -12 3 -12 1 0 -14 9 -12 9 -15 2
-10 -12 7 -18 -5 -14 -28 1 -5 -5 -3 -14 4 -8 7 -18 10 -22 6 -3 -3 -1 -6 5
-6 6 0 9 -7 6 -15 -5 -12 -9 -13 -20 -4 -12 10 -13 8 -8 -7 4 -10 4 -16 -1
-12 -4 4 -14 3 -22 -3 -10 -9 -11 -15 -2 -26 10 -11 9 -12 -5 -7 -12 5 -15 2
-10 -10 3 -9 1 -16 -6 -16 -6 0 -8 -4 -5 -10 3 -5 -3 -10 -14 -10 -12 0 -21
-5 -21 -11 0 -5 6 -7 13 -4 6 4 2 -2 -11 -12 -18 -15 -20 -21 -10 -32 11 -11
9 -11 -10 -1 -22 11 -23 10 -13 -9 13 -23 15 -42 2 -23 -6 10 -11 9 -22 -4
-12 -15 -12 -17 0 -9 10 5 12 4 7 -3 -4 -7 -14 -12 -22 -12 -8 0 -14 -5 -14
-11 0 -5 4 -8 8 -5 5 3 9 -1 9 -9 0 -8 -2 -13 -5 -11 -2 2 -12 -3 -22 -12 -14
-11 -16 -19 -9 -28 7 -8 6 -15 -2 -20 -8 -5 -9 -3 -4 7 8 12 6 12 -8 0 -18
-14 -23 -26 -8 -16 5 3 12 1 16 -5 3 -6 -4 -10 -16 -10 -12 0 -19 -3 -16 -7 4
-3 1 -13 -6 -21 -9 -13 -9 -14 1 -8 6 4 12 2 12 -3 0 -6 -8 -11 -17 -11 -15 0
-14 -2 3 -16 10 -8 13 -13 7 -9 -7 3 -21 1 -30 -5 -16 -10 -16 -11 2 -6 20 6
20 6 1 -9 -11 -8 -14 -15 -8 -15 7 0 3 -9 -8 -20 -11 -11 -17 -26 -14 -35 4
-8 1 -15 -6 -15 -9 0 -9 -4 1 -17 8 -9 9 -14 3 -10 -7 4 -15 0 -18 -9 -10 -25
-7 -27 12 -13 14 11 14 10 -2 -8 -10 -13 -23 -20 -29 -16 -6 3 -7 1 -3 -5 4
-6 14 -9 24 -6 9 3 4 -4 -11 -16 -21 -17 -25 -25 -17 -35 8 -9 7 -17 -3 -27
-12 -11 -12 -16 0 -26 7 -7 13 -18 13 -24 0 -7 -7 -3 -16 8 -8 10 -13 14 -10
8 15 -31 13 -63 -5 -83 -11 -12 -15 -21 -8 -21 8 0 9 -4 0 -13 -8 -10 -7 -17
2 -27 9 -10 9 -11 -1 -6 -13 8 -13 -19 1 -40 3 -6 -3 -20 -15 -30 -12 -11 -18
-13 -14 -6 6 9 1 11 -18 8 -15 -3 -26 0 -26 6 0 6 -6 6 -15 -2 -13 -11 -18
-10 -29 5 -13 18 -14 18 -24 -1 -7 -12 -12 -14 -12 -5 0 11 -3 11 -17 0 -11
-10 -14 -10 -9 -1 5 8 -1 12 -18 12 -14 0 -26 -5 -26 -11 0 -6 -7 -3 -16 5
-21 21 -30 20 -13 -1 8 -9 9 -14 2 -10 -6 4 -25 9 -42 11 -27 3 -30 1 -19 -12
11 -13 11 -14 0 -8 -24 14 -62 14 -62 0 0 -8 -5 -14 -11 -14 -5 0 -8 4 -4 9 3
5 1 13 -5 16 -6 4 -9 1 -8 -7 2 -8 -7 -13 -27 -13 -16 0 -36 -4 -42 -8 -7 -5
-17 -6 -22 -3 -5 4 -7 -2 -4 -13 3 -10 0 -22 -6 -25 -6 -4 -9 -1 -5 7 3 8 -1
14 -10 14 -8 0 -13 -4 -10 -9 5 -8 -5 -11 -37 -11 -11 0 -15 -7 -13 -21 3 -12
2 -15 -2 -8 -9 18 -27 15 -20 -4 6 -15 4 -15 -11 -3 -9 8 -14 9 -10 2 4 -6 3
-14 -3 -18 -5 -3 -10 0 -11 7 0 7 -5 3 -11 -9 -6 -13 -17 -23 -25 -23 -8 0
-11 5 -7 12 4 7 3 8 -5 4 -6 -4 -9 -11 -6 -15 2 -5 -5 -17 -18 -27 -21 -19
-21 -19 -7 0 14 18 14 18 -7 6 -11 -8 -19 -20 -16 -27 3 -7 -2 -14 -11 -14
-29 -3 -34 -4 -43 -12 -4 -5 -3 -8 2 -7 26 6 25 -2 -4 -29 -16 -15 -27 -32
-23 -37 4 -5 -1 -3 -10 4 -14 11 -16 10 -11 -6 3 -15 -3 -24 -24 -34 -21 -10
-28 -20 -27 -41 0 -16 -5 -27 -14 -27 -7 0 -10 -4 -7 -10 3 -5 -2 -10 -12 -10
-15 0 -16 -2 -3 -10 13 -8 12 -10 -2 -10 -10 0 -18 -5 -18 -11 0 -5 -5 -7 -12
-3 -7 4 -8 3 -4 -5 6 -9 11 -9 22 0 12 10 17 9 27 -1 9 -10 9 -11 0 -6 -7 4
-23 0 -35 -8 -20 -14 -18 -21 5 -17 4 1 0 -10 -9 -24 -16 -25 -32 -36 -18 -12
6 8 3 8 -9 -1 -19 -16 -18 -32 3 -49 13 -11 12 -12 -4 -6 -13 4 -17 3 -12 -5
4 -7 2 -12 -5 -12 -7 0 -5 -10 7 -28 13 -20 14 -24 2 -14 -12 10 -18 9 -28 -3
-11 -13 -10 -15 6 -9 17 5 18 4 2 -8 -14 -12 -16 -36 -17 -155 0 -140 0 -141
27 -168 22 -23 23 -26 5 -17 -12 7 -23 17 -26 24 -3 7 -4 1 -3 -15 2 -15 6
-30 11 -35 4 -4 5 -1 1 6 -4 6 -2 12 3 12 6 0 11 -16 11 -36 0 -19 4 -33 9
-29 5 3 12 1 15 -4 4 -5 1 -13 -5 -17 -8 -5 -9 -3 -4 6 5 8 4 11 -3 7 -12 -8
-10 -32 3 -44 4 -4 5 -2 0 6 -6 10 -4 12 4 6 7 -4 11 -16 8 -26 -3 -11 -1 -17
4 -13 5 3 9 0 9 -6 0 -6 6 -8 13 -4 9 6 9 4 0 -7 -20 -20 -15 -31 9 -23 20 6
21 5 9 -10 -10 -12 -10 -16 -1 -16 9 0 9 -4 -1 -16 -12 -15 -11 -16 11 -9 22
7 23 6 11 -9 -9 -11 -10 -16 -2 -16 7 0 9 -5 5 -12 -5 -8 0 -7 11 2 10 8 16
10 12 3 -4 -6 0 -19 9 -27 8 -9 12 -16 7 -16 -5 0 -15 6 -22 12 -10 11 -11 10
-6 -4 4 -9 16 -18 28 -20 14 -2 22 -10 22 -23 0 -11 11 -25 23 -31 15 -7 20
-14 13 -18 -6 -4 -11 -13 -11 -19 0 -8 3 -8 9 1 7 11 12 12 29 1 15 -9 18 -17
11 -25 -8 -9 -5 -11 10 -7 13 3 21 1 21 -6 0 -7 5 -9 13 -5 7 5 6 0 -3 -11 -9
-11 -10 -16 -2 -11 7 4 12 2 12 -5 0 -6 8 -9 20 -6 11 3 18 1 14 -4 -3 -5 0
-9 6 -9 6 0 8 -5 4 -12 -6 -10 -4 -10 8 0 14 11 17 10 22 -6 6 -19 36 -27 36
-9 0 6 3 7 6 4 4 -4 1 -14 -7 -24 -9 -11 -10 -14 -2 -9 8 4 13 1 13 -8 0 -9 5
-16 11 -16 5 0 7 5 4 10 -3 6 -1 10 4 10 6 0 11 -5 11 -11 0 -8 6 -7 17 2 11
10 14 10 9 2 -4 -9 -1 -13 10 -13 12 0 14 -3 6 -13 -8 -9 -3 -12 21 -12 18 0
35 5 39 10 4 6 8 2 8 -7 0 -10 7 -18 15 -18 8 0 15 5 15 11 0 7 14 -4 31 -22
18 -19 27 -27 21 -19 -9 13 -4 15 31 14 63 -2 63 -2 74 -26 8 -19 10 -20 16
-4 4 9 3 15 -1 12 -5 -3 -9 1 -9 9 0 10 4 12 12 5 14 -11 42 -9 64 4 9 6 12 5
8 -1 -8 -12 17 -36 26 -26 4 3 13 0 21 -6 11 -9 16 -9 22 0 4 7 3 9 -3 6 -6
-4 -13 -1 -16 7 -4 10 0 12 14 9 10 -3 19 -13 20 -22 0 -12 2 -11 9 4 5 11 9
14 9 8 1 -7 6 -13 12 -13 6 0 8 7 5 16 -5 14 -4 15 9 4 8 -7 12 -17 8 -24 -4
-6 1 -5 10 3 14 11 17 11 17 0 0 -12 2 -12 9 -1 11 17 21 17 32 0 5 -7 9 -8 9
-3 0 6 14 12 31 13 22 2 28 -1 23 -10 -5 -10 -4 -10 7 0 12 11 12 14 -1 22 -8
5 -10 10 -4 10 16 0 35 -25 26 -36 -4 -4 1 -2 10 5 15 11 18 11 18 0 0 -9 3
-10 8 -4 11 15 32 17 32 2 0 -9 2 -9 9 1 4 8 11 13 15 13 24 -3 46 0 42 7 -2
4 9 8 26 9 20 0 26 -2 17 -7 -7 -5 -17 -6 -21 -4 -15 9 -8 -3 9 -17 11 -10 14
-10 9 -1 -4 7 -1 12 9 12 10 0 13 -5 9 -12 -4 -7 -3 -8 5 -4 6 4 9 11 6 16 -3
4 3 14 13 21 15 13 16 12 3 -4 -9 -12 -10 -17 -2 -17 7 0 9 -6 5 -12 -6 -10
-4 -10 7 0 17 16 63 16 53 0 -4 -7 -3 -8 4 -4 6 4 9 13 5 21 -4 11 -1 13 11 9
9 -3 14 -10 11 -15 -6 -9 29 -4 48 8 6 4 25 8 42 9 20 2 25 0 15 -6 -8 -5 -18
-6 -22 -4 -15 9 -8 -3 9 -17 11 -10 14 -10 9 -1 -4 7 -1 12 9 12 10 0 13 -5 9
-12 -4 -7 -3 -8 5 -4 6 4 9 11 6 16 -3 4 3 14 13 21 15 13 16 12 3 -4 -9 -12
-10 -17 -2 -17 7 0 9 -6 5 -12 -6 -10 -4 -10 7 0 17 16 63 16 53 0 -4 -7 -3
-8 4 -4 6 4 9 13 5 21 -4 11 -1 13 11 9 9 -3 14 -10 11 -15 -6 -9 29 -4 48 8
6 4 25 8 42 9 20 2 25 0 15 -6 -8 -5 -18 -6 -22 -4 -15 9 -8 -3 9 -17 11 -10
14 -10 9 -1 -4 7 -1 12 9 12 10 0 13 -5 9 -12 -5 -9 -2 -9 9 1 13 10 20 11 31
2 11 -9 16 -9 22 0 4 7 3 9 -3 6 -6 -4 -13 -1 -16 7 -4 10 0 12 14 9 10 -3 19
-13 20 -22 0 -12 2 -11 9 4 5 11 9 14 9 8 1 -7 6 -13 12 -13 6 0 8 7 5 16 -5
14 -4 15 9 4 8 -7 12 -17 8 -24 -4 -6 1 -5 10 3 14 11 17 11 17 0 0 -12 2 -12
9 -1 11 17 21 17 32 0 5 -7 9 -8 9 -3 0 6 14 12 31 13 22 2 28 -1 23 -10 -5
-10 -4 -10 7 0 12 11 12 14 -1 22 -8 5 -10 10 -4 10 16 0 35 -25 26 -36 -4 -4
1 -2 11 5 14 11 17 11 17 0 0 -9 3 -10 8 -4 11 15 32 17 32 2 0 -9 2 -9 9 1 4
8 11 13 15 13 24 -3 46 0 42 7 -2 4 9 8 26 9 20 0 26 -2 17 -7 -7 -5 -17 -6
-21 -4 -15 9 -8 -3 9 -17 11 -10 14 -10 9 -1 -4 7 -1 12 9 12 10 0 13 -5 9
-12 -4 -7 -3 -8 5 -4 6 4 9 11 6 16 -3 4 3 14 13 21 15 13 16 12 3 -3 -9 -13
-10 -18 -2 -18 7 0 9 -6 5 -12 -6 -10 -4 -10 7 0 17 16 63 16 53 0 -4 -7 -3
-8 4 -4 6 4 9 13 5 21 -4 11 -1 13 11 9 9 -3 14 -10 11 -15 -6 -9 29 -4 48 8
6 4 25 8 42 9 20 2 25 0 15 -6 -8 -5 -18 -6 -22 -4 -15 9 -8 -3 9 -17 11 -10
14 -10 9 -1 -4 7 -1 12 9 12 10 0 13 -5 9 -12 -4 -7 -3 -8 5 -4 6 4 9 11 6 16
-3 4 3 14 13 21 15 13 16 12 3 -4 -9 -12 -10 -17 -2 -17 7 0 9 -6 5 -12 -6
-10 -4 -10 7 0 17 16 63 16 53 0 -4 -7 -3 -8 4 -4 6 4 9 13 5 21 -4 11 -1 13
11 9 9 -3 14 -10 11 -15 -6 -9 29 -4 48 8 6 4 25 8 42 9 20 2 25 0 15 -6 -8
-5 -18 -6 -22 -4 -15 9 -8 -3 9 -17 11 -10 14 -10 9 -1 -4 7 -1 12 9 12 10 0
13 -5 9 -12 -5 -9 -2 -9 9 1 13 10 20 11 31 2 11 -9 16 -9 22 0 4 7 3 9 -3 6
-6 -4 -13 -1 -16 7 -4 10 0 12 14 9 10 -3 19 -13 20 -22 0 -12 2 -11 9 4 5 11
9 14 9 8 1 -7 6 -13 12 -13 6 0 8 7 5 16 -5 14 -4 15 9 4 8 -7 12 -17 8 -24
-4 -6 1 -5 10 3 14 11 17 11 17 0 0 -12 2 -12 9 -1 4 8 12 14 16 14 4 0 12 -6
16 -14 5 -7 9 -8 9 -3 0 6 14 12 31 13 22 2 28 -1 23 -10 -5 -10 -4 -10 7 0
12 11 12 14 -1 22 -8 5 -10 10 -4 10 16 0 35 -25 26 -36 -4 -4 1 -2 11 5 14
11 17 11 17 0 0 -9 3 -10 8 -4 11 15 32 17 32 2 0 -9 2 -9 9 1 4 8 11 13 15
13 24 -3 46 0 42 7 -2 4 9 8 26 9 20 0 26 -2 17 -7 -7 -5 -17 -6 -21 -4 -15 9
-8 -3 9 -17 11 -10 14 -10 9 -1 -4 7 -1 12 9 12 10 0 13 -5 9 -12 -4 -7 -3 -8
5 -4 6 4 9 11 6 16 -3 4 3 14 13 21 15 13 16 12 3 -3 -9 -13 -10 -18 -2 -18 7
0 9 -6 5 -12 -6 -10 -4 -10 7 0 17 16 63 16 53 0 -4 -7 -3 -8 4 -4 6 4 9 13 5
21 -4 11 -1 13 11 9 9 -3 14 -10 11 -15 -6 -9 29 -4 48 8 6 4 25 8 42 9 20 2
25 0 15 -6 -8 -5 -18 -6 -22 -4 -15 9 -8 -3 9 -17 11 -10 14 -10 9 -1 -4 7 -1
12 9 12 10 0 13 -5 9 -12 -4 -7 -3 -8 5 -4 6 4 9 11 6 16 -3 4 3 14 13 21 15
13 16 12 3 -4 -9 -12 -10 -17 -2 -17 7 0 9 -6 5 -12 -6 -10 -4 -10 7 0 17 16
63 16 53 0 -4 -7 -3 -8 4 -4 6 4 9 13 5 21 -4 11 -1 13 11 9 9 -3 14 -10 11
-15 -6 -9 29 -4 48 8 6 4 25 8 42 9 20 2 25 0 15 -6 -8 -5 -18 -6 -22 -4 -15
9 -8 -3 9 -17 11 -10 14 -10 9 -2 -4 8 -1 13 9 13 10 0 13 -5 9 -12 -5 -9 -2
-9 9 1 13 10 20 11 31 2 11 -9 16 -9 22 0 4 7 3 9 -3 6 -6 -4 -13 -1 -16 7 -4
10 0 12 14 9 10 -3 19 -13 20 -22 0 -12 2 -11 9 4 5 11 9 14 9 8 1 -7 6 -13
12 -13 6 0 8 7 5 16 -5 14 -4 15 9 4 8 -7 12 -17 8 -24 -4 -6 1 -5 10 3 14 11
17 11 17 0 0 -12 2 -12 9 -1 4 8 12 14 16 14 4 0 12 -6 16 -14 5 -7 9 -8 9 -3
0 6 14 12 31 13 22 2 28 -1 23 -10 -5 -10 -4 -10 7 0 12 11 12 14 -1 22 -8 5
-10 10 -4 10 16 0 35 -25 26 -36 -4 -4 1 -2 11 5 14 11 17 11 17 0 0 -9 3 -10
8 -4 11 15 32 17 32 2 0 -9 2 -9 9 1 4 8 11 13 15 13 24 -3 46 0 42 7 -2 4 9
8 26 9 20 0 26 -2 17 -7 -7 -5 -17 -6 -21 -4 -15 9 -8 -3 9 -17 11 -10 14 -10
9 -1 -4 7 -1 12 9 12 10 0 13 -5 9 -12 -6 -10 -4 -10 8 0 13 10 17 10 21 0 4
-10 6 -10 6 0 1 7 14 12 32 12 20 0 28 -4 23 -12 -5 -7 -3 -8 7 -2 18 11 51
12 66 2 7 -6 14 -4 19 3 4 8 3 9 -4 5 -7 -4 -12 -2 -12 3 0 6 6 11 13 12 6 0
22 2 35 5 12 2 22 0 22 -5 0 -6 -8 -8 -18 -6 -10 2 -19 -2 -19 -9 0 -20 30
-15 48 7 12 16 18 17 24 7 5 -9 4 -11 -3 -6 -8 5 -10 1 -5 -10 5 -15 7 -15 15
0 5 9 6 22 2 29 -6 9 -5 9 8 0 8 -7 18 -10 21 -6 4 3 7 2 7 -4 0 -6 7 -14 16
-17 13 -5 14 -3 6 7 -8 10 -6 13 8 13 10 0 16 -5 14 -11 -3 -5 2 -1 10 9 16
20 16 20 17 0 0 -18 1 -18 9 1 5 11 9 14 9 7 1 -10 5 -10 17 2 8 9 20 14 25
10 6 -3 17 0 26 8 14 11 16 11 9 -1 -6 -9 -5 -12 5 -9 8 3 13 11 11 17 -1 7 2
10 7 6 6 -3 8 -13 5 -23 -3 -9 2 -5 11 11 18 31 27 36 19 10 -5 -17 -5 -17 9
0 15 18 32 24 22 7 -3 -6 -1 -10 4 -10 6 0 11 5 11 12 0 6 3 9 6 5 4 -3 13 1
21 9 8 8 18 12 23 9 4 -3 10 1 13 9 4 9 16 13 32 12 19 -3 30 4 41 23 8 14 13
19 11 11 -3 -10 2 -16 13 -16 15 0 17 4 8 21 -6 11 -7 17 -3 12 5 -4 17 0 27
10 10 9 18 13 18 8 0 -4 -8 -14 -17 -22 -16 -12 -14 -12 10 -1 15 6 26 17 23
24 -3 7 3 18 12 26 13 11 14 11 7 -1 -6 -11 -4 -13 9 -8 10 4 22 7 27 7 6 0 8
4 4 9 -3 5 3 12 14 16 11 3 25 13 33 23 12 15 11 16 -4 4 -12 -10 -18 -10 -24
-1 -4 7 -3 9 4 5 6 -3 14 -2 17 4 4 6 15 8 26 5 11 -4 19 -2 19 5 0 6 -4 9 -9
5 -5 -3 -13 -1 -16 5 -4 6 -1 9 7 8 7 -2 12 3 10 10 -2 10 2 10 19 1 13 -6 19
-7 15 -1 -3 6 -1 14 5 17 5 4 8 13 5 21 -3 9 0 11 11 7 11 -4 14 -3 9 6 -5 7
-2 10 6 9 7 -2 12 5 12 14 -1 10 3 15 9 11 7 -4 8 0 3 12 -5 15 -4 16 8 6 9
-7 17 -8 20 -2 3 5 0 12 -6 14 -10 4 -10 6 0 6 7 1 10 6 6 13 -4 6 -3 9 2 5 5
-3 18 2 29 10 20 16 20 16 0 9 -20 -6 -20 -6 -1 9 11 8 16 15 11 15 -5 0 -1 6
10 14 11 8 16 20 13 33 -5 17 -1 21 18 18 13 -1 24 2 24 6 0 5 -4 9 -8 9 -5 0
-9 6 -9 14 0 8 6 12 15 8 9 -3 13 -1 9 5 -9 15 3 44 14 37 5 -3 6 -11 3 -17
-4 -7 -3 -9 1 -4 11 9 14 48 4 42 -4 -3 -6 6 -5 19 1 20 4 22 16 13 8 -6 12
-7 8 -3 -4 5 -3 16 4 23 7 8 13 22 14 31 1 10 5 26 9 37 5 16 5 17 -4 5 -15
-21 -14 -7 2 24 8 14 18 22 22 18 5 -4 5 -2 1 5 -4 7 -14 10 -24 7 -9 -3 -6 2
8 11 14 9 17 14 8 11 -10 -3 -20 -1 -23 5 -4 5 -3 9 2 8 21 -4 43 2 43 11 0 5
-8 7 -17 4 -17 -5 -17 -5 0 9 21 18 22 28 1 20 -14 -5 -14 -3 2 15 10 12 23
18 29 14 6 -4 3 1 -7 10 -18 16 -18 17 2 15 11 -1 20 -5 20 -9 0 -4 9 -8 20
-8 11 0 20 -5 20 -12 0 -6 2 -9 5 -6 12 11 -7 37 -23 31 -14 -4 -15 -3 -2 5 8
6 19 7 25 3 12 -9 26 -8 42 2 6 4 18 0 26 -8 19 -18 31 -20 21 -2 -6 10 -4 10
7 0 20 -19 33 -16 18 5 -12 15 -12 16 2 5 9 -7 20 -9 24 -5 5 4 5 1 1 -5 -9
-17 -2 -16 37 3 l32 15 -25 -20 c-14 -11 -21 -23 -17 -27 4 -4 7 -2 7 4 0 7
11 11 25 10 14 -1 25 -7 25 -13 0 -5 4 -3 9 5 6 8 7 18 4 24 -4 5 1 7 10 3 9
-3 18 -1 21 6 2 7 5 4 5 -5 1 -10 -4 -18 -10 -18 -5 0 -7 -5 -4 -11 5 -7 11
-5 18 4 7 8 23 18 37 22 22 7 23 6 11 -8 -7 -9 -18 -14 -24 -10 -6 3 -7 1 -3
-6 6 -8 11 -9 20 -1 16 13 66 9 66 -5 0 -5 4 -3 9 5 6 8 7 18 4 24 -4 5 1 7
10 3 9 -3 18 -1 21 6 2 7 5 4 5 -5 1 -10 -4 -18 -10 -18 -5 0 -7 -5 -4 -11 5
-7 11 -5 18 4 7 8 23 18 37 22 22 7 23 6 11 -8 -7 -9 -18 -14 -24 -10 -6 4 -7
1 -2 -6 5 -9 10 -10 18 -2 15 15 50 14 41 -1 -5 -7 -3 -8 7 -2 8 5 19 9 24 9
6 1 9 7 7 14 -2 8 3 11 12 8 8 -3 17 -1 20 6 3 8 5 7 5 -2 1 -8 -7 -20 -16
-28 -16 -13 -15 -13 7 -1 45 26 63 30 56 13 -3 -10 -2 -13 5 -10 5 4 18 1 27
-6 14 -12 14 -10 -1 8 -10 12 -14 24 -9 27 6 3 12 -1 16 -9 3 -8 13 -15 23
-14 11 0 13 3 6 6 -21 8 -15 18 11 18 19 0 22 -3 14 -13 -8 -9 -7 -11 6 -6 9
3 16 13 16 21 0 8 5 11 10 8 6 -4 8 -12 4 -18 -3 -7 1 -4 9 6 13 16 15 16 21
1 5 -12 9 -14 20 -5 7 6 15 9 18 6 3 -3 11 2 19 12 12 15 12 16 -1 8 -12 -6
-13 -6 -2 6 11 12 14 12 22 -1 8 -12 10 -10 10 10 0 19 2 22 9 10 6 -8 7 -19
3 -25 -3 -5 2 -4 11 3 9 8 19 22 22 33 6 19 7 19 23 1 9 -10 13 -12 9 -6 -9
14 21 34 41 27 7 -3 10 1 6 10 -4 11 2 14 21 12 22 -3 24 -1 14 11 -6 8 -9 17
-5 21 3 3 6 2 6 -4 0 -6 6 -13 14 -16 10 -4 12 0 8 16 -5 19 -3 20 10 9 12
-10 17 -10 26 1 8 10 8 17 1 24 -8 8 -7 13 2 18 8 5 10 4 5 -3 -4 -7 -2 -12 3
-12 6 0 11 5 11 10 0 6 5 10 11 10 5 0 7 -5 3 -12 -4 -7 -3 -8 5 -4 9 6 9 11
0 22 -10 12 -10 15 1 12 8 -2 14 4 15 12 0 10 9 14 25 14 23 -2 24 -1 5 13
-17 13 -17 15 -2 10 9 -4 17 -2 17 4 0 6 4 8 8 5 4 -2 9 5 9 16 2 23 22 40 36
31 5 -3 4 4 -3 17 -11 20 -10 21 8 11 17 -9 19 -8 15 9 -3 11 -10 17 -16 13
-6 -3 -7 -1 -3 6 6 9 11 9 22 0 12 -10 14 -6 9 27 -3 29 -2 34 4 19 5 -11 10
-15 10 -10 1 6 6 3 11 -5 8 -11 9 -7 4 14 -5 19 -2 31 7 37 11 7 11 9 1 9 -7
0 -11 4 -7 10 3 5 13 7 23 4 10 -4 13 -2 7 3 -5 4 -17 17 -25 28 -11 16 -11
17 0 8 19 -17 31 -16 24 2 -3 8 1 24 9 36 11 15 13 28 7 45 -8 19 -6 24 6 24
8 0 12 5 9 10 -4 6 -11 8 -16 5 -5 -3 -6 1 -3 9 3 9 14 16 23 17 10 0 11 2 3
6 -6 2 -9 10 -5 16 3 6 7 26 9 44 1 28 -1 33 -14 28 -14 -5 -14 -4 0 12 16 19
21 56 6 47 -12 -8 -10 10 3 23 16 16 2 34 -19 26 -15 -6 -15 -5 -3 10 7 9 18
14 24 10 6 -3 7 -1 3 5 -4 6 -14 8 -23 5 -10 -4 -14 -2 -9 5 3 6 2 13 -3 17
-9 5 -9 17 0 50 1 6 -3 21 -9 35 -6 14 -11 19 -11 13 -1 -21 -17 -15 -17 6 0
11 5 17 11 14 5 -4 1 4 -10 17 -11 13 -15 20 -8 17 6 -4 15 -2 19 4 4 8 3 9
-4 5 -7 -4 -12 -2 -12 4 0 6 -4 9 -8 6 -11 -7 -32 32 -35 61 0 12 -5 19 -9 17
-5 -3 -5 -10 -2 -16 4 -7 2 -8 -4 -4 -6 4 -9 12 -6 20 3 7 -5 18 -18 24 l-23
12 25 -5 c14 -3 19 -2 12 1 -6 3 -10 10 -7 15 4 5 0 6 -8 3 -8 -3 -18 0 -23 7
-5 8 -3 10 6 4 9 -5 11 -4 6 4 -5 7 -17 9 -29 5 -22 -6 -22 -6 -2 10 19 15 19
15 -10 17 -30 1 -30 1 -5 9 25 8 25 8 2 9 -13 1 -21 5 -17 10 3 5 0 13 -6 17
-8 4 -9 3 -5 -4 4 -7 2 -12 -3 -12 -10 0 -15 14 -12 33 0 4 -2 6 -6 6 -21 -3
-33 2 -33 16 0 8 -5 15 -11 15 -5 0 -7 5 -3 12 4 7 3 8 -5 4 -9 -6 -9 -12 1
-24 11 -14 9 -14 -8 1 -11 9 -24 14 -27 10 -4 -3 -7 1 -7 11 0 9 5 14 10 11 6
-3 10 -1 10 5 0 7 -6 10 -14 7 -7 -3 -20 0 -27 6 -10 10 -10 8 0 -6 12 -15 12
-17 -3 -11 -9 3 -16 15 -16 26 0 10 -5 16 -10 13 -6 -4 -7 -11 -4 -17 4 -6 2
-8 -4 -4 -6 3 -9 15 -7 26 5 24 1 25 -19 4 -15 -14 -16 -13 -17 8 0 13 -3 17
-6 11 -2 -7 -9 -13 -14 -13 -6 0 -8 4 -5 8 2 4 -4 13 -15 20 -21 14 -25 3 -6
-18 10 -12 9 -12 -5 -2 -9 7 -18 9 -20 5 -3 -4 -3 -2 -2 4 2 7 -6 18 -18 24
-15 8 -18 8 -14 0 11 -18 -6 -13 -19 6 -13 17 -50 28 -39 12 3 -5 9 -7 14 -4
4 3 10 -2 13 -10 5 -12 2 -12 -18 -3 -14 6 -25 15 -25 20 0 5 -5 6 -10 3 -6
-4 -7 -12 -3 -18 3 -7 -2 -5 -13 4 -10 9 -25 14 -33 11 -10 -3 -11 0 -5 9 7
12 5 12 -9 0 -12 -9 -17 -10 -17 -2 0 7 -5 9 -10 6 -17 -11 -62 -16 -56 -7 3
5 -1 9 -9 9 -8 0 -12 -4 -10 -8 3 -4 -2 -9 -10 -12 -10 -4 -12 -1 -8 10 5 13
1 12 -23 -3 -15 -11 -25 -14 -21 -7 5 8 -3 10 -27 8 -29 -3 -34 -1 -29 13 6
15 5 16 -13 2 -17 -14 -18 -13 -7 1 7 9 10 19 6 23 -4 4 0 4 9 1 12 -5 16 -2
14 11 -2 10 -9 20 -17 22 -11 3 -11 1 1 -7 8 -6 10 -11 4 -11 -6 0 -13 3 -17
6 -8 9 4 35 13 29 5 -3 12 0 16 6 4 7 3 9 -3 6 -6 -4 -17 1 -24 10 -10 12 -10
14 -1 9 7 -4 12 -1 12 9 0 9 -4 14 -8 11 -4 -2 -9 5 -9 17 -2 17 0 19 7 7 6
-9 10 -10 10 -3 0 6 -5 15 -10 18 -8 5 -7 12 2 23 11 13 10 15 -4 9 -10 -3
-20 -1 -24 5 -4 7 -3 8 4 4 7 -4 12 -1 12 9 0 10 -5 13 -12 9 -10 -6 -10 -4 0
8 10 13 10 18 1 24 -8 4 -9 3 -5 -4 4 -7 3 -12 -3 -12 -5 0 -9 9 -8 19 1 16 5
18 22 9 l20 -11 -20 20 c-11 11 -24 18 -30 15 -5 -3 -4 1 3 10 10 13 10 17 -4
22 -13 5 -14 10 -6 18 12 12 5 38 -10 38 -6 0 -4 -8 3 -17 13 -16 12 -17 -3
-5 -13 10 -15 19 -8 38 6 15 6 24 0 24 -6 0 -10 9 -10 20 0 11 -7 23 -15 26
-8 4 -15 10 -15 16 0 5 6 6 13 3 6 -4 4 0 -6 8 -14 11 -15 16 -5 20 9 4 8 6
-3 6 -9 1 -22 8 -29 16 -11 13 -10 15 6 9 18 -5 18 -5 2 9 -21 16 -24 32 -5
21 6 -4 3 2 -7 14 -23 26 -34 30 -15 5 13 -16 12 -17 -3 -5 -10 8 -14 20 -11
29 5 12 3 14 -8 8 -11 -7 -11 -5 1 10 9 11 10 16 3 11 -8 -4 -13 -1 -13 9 0 9
-4 13 -10 10 -5 -3 -10 3 -10 14 0 11 -5 23 -11 26 -6 4 -8 12 -6 19 3 7 -4
13 -16 13 -11 1 -27 10 -36 19 -9 9 -10 14 -3 10 6 -4 12 -3 12 3 0 5 -10 13
-21 16 -17 6 -19 9 -8 17 10 7 7 8 -10 4 -18 -4 -21 -2 -12 7 13 13 15 28 4
26 -26 -4 -35 2 -24 15 10 12 8 13 -11 9 l-23 -6 20 24 c11 13 13 19 5 12 -11
-8 -18 -8 -27 2 -6 7 -9 16 -5 19 3 4 -1 4 -9 1 -22 -8 -70 49 -62 73 4 11 -2
8 -16 -8 -12 -14 -20 -19 -16 -12 3 6 0 15 -9 18 -8 3 -12 12 -9 20 3 8 1 14
-5 14 -6 0 -13 -6 -15 -12 -3 -7 -6 -2 -6 11 -1 18 -5 22 -22 18 -16 -4 -18
-3 -9 7 7 10 6 17 -7 27 -11 9 -14 10 -9 2 4 -8 1 -13 -9 -13 -9 0 -13 5 -10
10 5 9 -16 15 -38 11 -5 -1 -6 3 -2 9 3 6 11 8 16 5 15 -10 10 2 -8 16 -11 10
-14 10 -9 2 4 -7 2 -13 -3 -13 -6 0 -11 5 -11 10 0 6 -7 10 -16 10 -10 0 -14
6 -11 14 4 11 -1 13 -24 11 -16 -2 -28 -1 -25 3 2 4 -7 15 -20 25 -15 11 -24
13 -24 6 0 -8 -4 -8 -15 1 -8 7 -15 9 -15 5 0 -5 -9 2 -20 15 -13 15 -20 18
-21 9 0 -8 -4 -6 -9 6 -5 11 -9 14 -9 8 -1 -7 -6 -13 -12 -13 -5 0 -7 5 -3 12
5 8 2 9 -9 5 -10 -3 -17 -2 -17 3 0 5 -7 6 -17 3 -10 -4 -14 -2 -9 5 3 6 2 13
-4 17 -5 3 -10 -2 -11 -12 0 -14 -2 -15 -6 -3 -9 23 -23 29 -54 20 -20 -6 -28
-5 -26 3 1 6 -8 12 -20 13 -13 1 -28 6 -35 11 -11 8 -33 10 -40 3 -13 -10 -40
-4 -58 12 -16 15 -30 18 -61 14 -27 -4 -38 -2 -33 5 4 7 -1 7 -15 0 -16 -9
-21 -9 -21 1 0 9 -3 9 -10 -2 -9 -13 -10 -13 -10 0 0 9 -3 11 -8 5 -4 -5 -25
-10 -47 -10 -22 0 -43 5 -47 10 -5 6 -8 4 -8 -5 0 -13 -1 -13 -10 0 -5 8 -10
10 -10 4z m260 -18 c0 -2 -7 -6 -15 -10 -8 -3 -15 -1 -15 4 0 6 7 10 15 10 8
0 15 -2 15 -4z m454 -144 c3 -5 -1 -9 -9 -9 -8 0 -12 4 -9 9 3 4 7 8 9 8 2 0
6 -4 9 -8z m526 -476 c0 -6 -7 -1 -15 10 -8 10 -15 23 -15 28 0 6 7 1 15 -10
8 -10 15 -23 15 -28z m-3915 -195 c3 -5 2 -12 -3 -15 -5 -3 -9 1 -9 9 0 17 3
19 12 6z m4045 -43 c0 -4 -4 -8 -9 -8 -6 0 -12 4 -15 8 -3 5 1 9 9 9 8 0 15
-4 15 -9z m-4160 -18 c0 -5 -7 -10 -16 -10 -8 0 -12 5 -9 10 3 6 10 10 16 10
5 0 9 -4 9 -10z m-136 -88 c3 -5 -1 -9 -9 -9 -8 0 -12 4 -9 9 3 4 7 8 9 8 2 0
6 -4 9 -8z m-97 -86 c-8 -8 -17 -12 -21 -9 -3 3 2 12 12 19 22 16 29 9 9 -10z
m-167 -166 c0 -5 -5 -10 -11 -10 -5 0 -7 5 -4 10 3 6 8 10 11 10 2 0 4 -4 4
-10z m-240 -444 c0 -2 -8 -10 -17 -17 -16 -13 -17 -12 -4 4 13 16 21 21 21 13z
m5795 -186 c3 -6 -1 -7 -9 -4 -18 7 -21 14 -7 14 6 0 13 -4 16 -10z m30 -130
c-3 -5 -12 -10 -18 -10 -7 0 -6 4 3 10 19 12 23 12 15 0z m-6385 -174 c0 -2
-8 -10 -17 -17 -16 -13 -17 -12 -4 4 13 16 21 21 21 13z m34 -4 c3 -5 -1 -9
-9 -9 -8 0 -12 4 -9 9 3 4 7 8 9 8 2 0 6 -4 9 -8z m6331 -91 c3 -5 2 -12 -3
-15 -5 -3 -9 1 -9 9 0 17 3 19 12 6z m-6770 -221 c-3 -5 -11 -10 -16 -10 -6 0
-7 5 -4 10 3 6 11 10 16 10 6 0 7 -4 4 -10z m-100 -208 c-3 -3 -11 0 -18 7 -9
10 -8 11 6 5 10 -3 15 -9 12 -12z m6351 -134 c4 -7 4 -10 -1 -6 -4 4 -15 2
-24 -5 -14 -11 -14 -10 -2 6 16 20 18 21 27 5z m-613 -21 c3 -8 -1 -14 -8 -14
-7 0 -11 6 -8 14 3 7 6 13 8 13 2 0 5 -6 8 -13z m160 0 c3 -8 -1 -14 -8 -14
-7 0 -11 6 -8 14 3 7 6 13 8 13 2 0 5 -6 8 -13z m160 0 c3 -8 -1 -14 -8 -14
-7 0 -11 6 -8 14 3 7 6 13 8 13 2 0 5 -6 8 -13z m-673 -242 c0 -12 -19 -12
-23 0 -4 9 -1 12 9 8 7 -3 14 -7 14 -8z m-5243 -410 c0 -8 -4 -12 -9 -9 -5 3
-6 10 -3 15 9 13 12 11 12 -6z m876 -288 c7 3 8 2 4 -3 -10 -11 -58 -14 -51
-2 3 4 10 6 15 3 5 -4 9 0 10 7 0 10 2 10 6 0 2 -6 10 -9 16 -5z m160 0 c7 3
8 2 4 -3 -10 -11 -58 -14 -51 -2 3 4 10 6 15 3 5 -4 9 0 10 7 0 10 2 10 6 0 2
-6 10 -9 16 -5z m800 0 c7 3 8 2 4 -3 -10 -11 -58 -14 -51 -2 3 4 10 6 15 3 5
-4 9 0 10 7 0 10 2 10 6 0 2 -6 10 -9 16 -5z m160 0 c7 3 8 2 4 -3 -10 -11
-58 -14 -51 -2 3 4 10 6 15 3 5 -4 9 0 10 7 0 10 2 10 6 0 2 -6 10 -9 16 -5z
m800 0 c7 3 8 2 4 -3 -10 -11 -58 -14 -51 -2 3 4 10 6 15 3 5 -4 9 0 10 7 0
10 2 10 6 0 2 -6 10 -9 16 -5z m160 0 c7 3 8 2 4 -3 -10 -11 -58 -14 -51 -2 3
4 10 6 15 3 5 -4 9 0 10 7 0 10 2 10 6 0 2 -6 10 -9 16 -5z m800 0 c7 3 8 2 4
-3 -10 -11 -58 -14 -51 -2 3 4 10 6 15 3 5 -4 9 0 10 7 0 10 2 10 6 0 2 -6 10
-9 16 -5z m160 0 c7 3 8 2 4 -3 -10 -11 -58 -14 -51 -2 3 4 10 6 15 3 5 -4 9
0 10 7 0 10 2 10 6 0 2 -6 10 -9 16 -5z m210 -1 c6 -15 -17 -16 -30 -1 -4 4
-2 5 5 1 6 -4 12 -2 12 3 0 15 7 14 13 -3z m30 -1 c-3 -9 -8 -14 -10 -11 -3 3
-2 9 2 15 9 16 15 13 8 -4z m-113 -3 c0 -5 -7 -9 -15 -9 -8 0 -12 4 -9 9 3 4
9 8 15 8 5 0 9 -4 9 -8z"/>
<path d="M4849 5377 c6 -6 18 -12 27 -13 12 -2 14 0 5 9 -6 6 -18 12 -27 13
-12 2 -14 0 -5 -9z"/>
<path d="M5003 5355 c0 -8 4 -12 9 -9 5 3 6 10 3 15 -9 13 -12 11 -12 -6z"/>
<path d="M5580 5031 c0 -6 4 -13 10 -16 6 -3 7 1 4 9 -7 18 -14 21 -14 7z"/>
<path d="M5758 4823 c7 -3 16 -2 19 1 4 3 -2 6 -13 5 -11 0 -14 -3 -6 -6z"/>
<path d="M2240 4711 c-8 -6 -18 -7 -24 -4 -5 3 -6 1 -2 -5 5 -9 13 -9 27 -2
10 6 19 13 19 15 0 7 -3 6 -20 -4z"/>
<path d="M2992 4691 c-10 -6 -10 -10 2 -20 11 -9 16 -9 22 0 5 8 3 9 -6 4 -10
-6 -12 -4 -7 8 7 19 7 20 -11 8z"/>
<path d="M1946 4618 c3 -4 9 -8 15 -8 5 0 9 4 9 8 0 5 -7 9 -15 9 -8 0 -12 -4
-9 -9z"/>
<path d="M1480 4300 c-8 -5 -12 -12 -9 -15 4 -3 12 1 19 10 14 17 11 19 -10 5z"/>
<path d="M6867 3659 c7 -7 15 -10 18 -7 3 3 -2 9 -12 12 -14 6 -15 5 -6 -5z"/>
<path d="M6933 3485 c0 -8 4 -12 9 -9 5 3 6 10 3 15 -9 13 -12 11 -12 -6z"/>
<path d="M1020 3430 c-12 -8 -12 -10 -1 -10 11 0 11 -3 0 -17 -11 -15 -11 -16
1 -6 8 7 15 20 16 28 3 18 3 17 -16 5z"/>
<path d="M6815 2840 c3 -5 8 -10 11 -10 2 0 4 5 4 10 0 6 -5 10 -11 10 -5 0
-7 -4 -4 -10z"/>
<path d="M5616 2541 c-4 -6 -12 -8 -18 -5 -7 4 -8 2 -4 -5 4 -6 12 -8 18 -5 6
4 14 0 19 -7 5 -8 9 -9 9 -4 0 20 -17 38 -24 26z"/>
<path d="M4870 1678 c0 -4 4 -8 9 -8 6 0 12 4 15 8 3 5 -1 9 -9 9 -8 0 -15 -4
-15 -9z"/>
<path d="M596 1622 c-3 -5 1 -9 9 -9 8 0 12 4 9 9 -3 4 -7 8 -9 8 -2 0 -6 -4
-9 -8z"/>
<path d="M4676 1612 c-3 -5 1 -9 9 -9 8 0 12 4 9 9 -3 4 -7 8 -9 8 -2 0 -6 -4
-9 -8z"/>
<path d="M710 1602 c0 -5 7 -9 15 -9 8 0 12 4 9 9 -3 4 -9 8 -15 8 -5 0 -9 -4
-9 -8z"/>
<path d="M813 1586 c0 -7 9 -13 19 -13 11 -1 18 3 16 9 -5 15 -35 19 -35 4z"/>
<path d="M1503 1585 c-10 -11 -9 -13 6 -12 11 1 17 7 14 14 -6 16 -5 16 -20
-2z"/>
<path d="M1743 1585 c-10 -11 -9 -13 6 -12 11 1 17 7 14 14 -6 16 -5 16 -20
-2z"/>
<path d="M2463 1585 c-10 -11 -9 -13 6 -12 11 1 17 7 14 14 -6 16 -5 16 -20
-2z"/>
<path d="M2703 1585 c-10 -11 -9 -13 6 -12 11 1 17 7 14 14 -6 16 -5 16 -20
-2z"/>
<path d="M3423 1585 c-10 -11 -9 -13 6 -12 11 1 17 7 14 14 -6 16 -5 16 -20
-2z"/>
<path d="M3663 1585 c-10 -11 -9 -13 6 -12 11 1 17 7 14 14 -6 16 -5 16 -20
-2z"/>
</g>
</svg>
