<svg  xmlns="http://www.w3.org/2000/svg">
	<symbol id="logo" width="137" height="22" viewBox="0 0 137 22">
		<path d="M119.71 3.99801H124.15V8.12601L123.982 8.70201V12.254L124.15 13.31V21.638H119.71V3.99801ZM122.686 10.838C122.926 9.36601 123.382 8.09401 124.054 7.02201C124.726 5.95001 125.574 5.11801 126.598 4.52601C127.638 3.91801 128.79 3.61401 130.054 3.61401C131.398 3.61401 132.574 3.91801 133.582 4.52601C134.606 5.13401 135.406 5.98201 135.982 7.07001C136.558 8.14201 136.846 9.39801 136.846 10.838C136.846 12.278 136.558 13.542 135.982 14.63C135.406 15.702 134.606 16.542 133.582 17.15C132.574 17.758 131.398 18.062 130.054 18.062C128.774 18.062 127.622 17.766 126.598 17.174C125.59 16.566 124.75 15.726 124.078 14.654C123.406 13.566 122.942 12.294 122.686 10.838ZM132.334 10.838C132.334 10.102 132.182 9.45401 131.878 8.89401C131.574 8.31801 131.15 7.87001 130.606 7.55001C130.078 7.21401 129.47 7.04601 128.782 7.04601C128.078 7.04601 127.406 7.21401 126.766 7.55001C126.126 7.87001 125.566 8.31801 125.086 8.89401C124.622 9.45401 124.262 10.102 124.006 10.838C124.262 11.574 124.622 12.23 125.086 12.806C125.566 13.366 126.126 13.814 126.766 14.15C127.406 14.47 128.078 14.63 128.782 14.63C129.47 14.63 130.078 14.47 130.606 14.15C131.15 13.814 131.574 13.366 131.878 12.806C132.182 12.23 132.334 11.574 132.334 10.838Z" fill="currentColor"/>
		<path d="M100.328 3.99801H104.768V8.12601L104.6 8.70201V12.254L104.768 13.31V21.638H100.328V3.99801ZM103.304 10.838C103.544 9.36601 104 8.09401 104.672 7.02201C105.344 5.95001 106.192 5.11801 107.216 4.52601C108.256 3.91801 109.408 3.61401 110.672 3.61401C112.016 3.61401 113.192 3.91801 114.2 4.52601C115.224 5.13401 116.024 5.98201 116.6 7.07001C117.176 8.14201 117.464 9.39801 117.464 10.838C117.464 12.278 117.176 13.542 116.6 14.63C116.024 15.702 115.224 16.542 114.2 17.15C113.192 17.758 112.016 18.062 110.672 18.062C109.392 18.062 108.24 17.766 107.216 17.174C106.208 16.566 105.368 15.726 104.696 14.654C104.024 13.566 103.56 12.294 103.304 10.838ZM112.952 10.838C112.952 10.102 112.8 9.45401 112.496 8.89401C112.192 8.31801 111.768 7.87001 111.224 7.55001C110.696 7.21401 110.088 7.04601 109.4 7.04601C108.696 7.04601 108.024 7.21401 107.384 7.55001C106.744 7.87001 106.184 8.31801 105.704 8.89401C105.24 9.45401 104.88 10.102 104.624 10.838C104.88 11.574 105.24 12.23 105.704 12.806C106.184 13.366 106.744 13.814 107.384 14.15C108.024 14.47 108.696 14.63 109.4 14.63C110.088 14.63 110.696 14.47 111.224 14.15C111.768 13.814 112.192 13.366 112.496 12.806C112.8 12.23 112.952 11.574 112.952 10.838Z" fill="currentColor"/>
		<path d="M93.1659 17.678L92.5659 12.71L93.2139 10.838L92.5659 8.99001L93.1659 3.99801H97.7979L96.9579 10.838L97.7979 17.678H93.1659ZM94.2699 10.838C94.0299 12.294 93.5739 13.566 92.9019 14.654C92.2299 15.726 91.3819 16.566 90.3579 17.174C89.3339 17.766 88.1819 18.062 86.9019 18.062C85.5579 18.062 84.3739 17.758 83.3499 17.15C82.3419 16.542 81.5499 15.702 80.9739 14.63C80.3979 13.542 80.1099 12.278 80.1099 10.838C80.1099 9.39801 80.3979 8.14201 80.9739 7.07001C81.5499 5.98201 82.3419 5.13401 83.3499 4.52601C84.3739 3.91801 85.5579 3.61401 86.9019 3.61401C88.1819 3.61401 89.3339 3.91801 90.3579 4.52601C91.3819 5.11801 92.2299 5.95001 92.9019 7.02201C93.5899 8.09401 94.0459 9.36601 94.2699 10.838ZM84.6219 10.838C84.6219 11.574 84.7739 12.23 85.0779 12.806C85.3819 13.366 85.7979 13.814 86.3259 14.15C86.8699 14.47 87.4939 14.63 88.1979 14.63C88.9019 14.63 89.5659 14.47 90.1899 14.15C90.8299 13.814 91.3899 13.366 91.8699 12.806C92.3499 12.23 92.7099 11.574 92.9499 10.838C92.7099 10.102 92.3499 9.45401 91.8699 8.89401C91.3899 8.31801 90.8299 7.87001 90.1899 7.55001C89.5659 7.21401 88.9019 7.04601 88.1979 7.04601C87.4939 7.04601 86.8699 7.21401 86.3259 7.55001C85.7979 7.87001 85.3819 8.31801 85.0779 8.89401C84.7739 9.45401 84.6219 10.102 84.6219 10.838Z" fill="currentColor"/>
		<path d="M69.8583 18.062C68.1303 18.062 66.6183 17.758 65.3223 17.15C64.0263 16.542 63.0183 15.694 62.2983 14.606C61.5783 13.518 61.2183 12.262 61.2183 10.838C61.2183 9.39801 61.5783 8.14201 62.2983 7.07001C63.0183 5.98201 64.0263 5.13401 65.3223 4.52601C66.6343 3.91801 68.1463 3.61401 69.8583 3.61401C71.5863 3.61401 73.0983 3.91801 74.3943 4.52601C75.7063 5.13401 76.7223 5.98201 77.4423 7.07001C78.1623 8.14201 78.5223 9.39801 78.5223 10.838C78.5223 12.278 78.1623 13.542 77.4423 14.63C76.7223 15.702 75.7063 16.542 74.3943 17.15C73.0983 17.758 71.5863 18.062 69.8583 18.062ZM69.8583 14.702C70.7383 14.702 71.4823 14.55 72.0903 14.246C72.7143 13.926 73.1863 13.478 73.5063 12.902C73.8423 12.326 74.0103 11.638 74.0103 10.838C74.0103 10.038 73.8423 9.35001 73.5063 8.77401C73.1863 8.19801 72.7143 7.75801 72.0903 7.45401C71.4823 7.13401 70.7383 6.97401 69.8583 6.97401C69.0103 6.97401 68.2743 7.13401 67.6503 7.45401C67.0263 7.75801 66.5463 8.19801 66.2103 8.77401C65.8743 9.35001 65.7063 10.038 65.7063 10.838C65.7063 11.638 65.8743 12.326 66.2103 12.902C66.5463 13.478 67.0263 13.926 67.6503 14.246C68.2743 14.55 69.0103 14.702 69.8583 14.702Z" fill="currentColor"/>
		<path d="M46.8358 7.31001V5.36601L49.6678 4.33401L51.5878 0.350006H54.1318V3.99801H60.0358V7.31001H54.1318V11.822C54.1318 12.846 54.3398 13.566 54.7558 13.982C55.1718 14.382 55.9158 14.582 56.9878 14.582C57.6758 14.582 58.2758 14.526 58.7878 14.414C59.3158 14.286 59.8118 14.118 60.2758 13.91V17.294C59.7958 17.486 59.1638 17.662 58.3798 17.822C57.6118 17.982 56.8118 18.062 55.9798 18.062C54.5238 18.062 53.3238 17.83 52.3798 17.366C51.4518 16.902 50.7638 16.254 50.3158 15.422C49.8838 14.574 49.6678 13.582 49.6678 12.446V7.31001H46.8358Z" fill="currentColor"/>
		<path d="M46.1263 13.286C46.1263 14.31 45.8223 15.182 45.2143 15.902C44.6223 16.606 43.7503 17.142 42.5983 17.51C41.4463 17.878 40.0463 18.062 38.3983 18.062C36.7183 18.062 35.2463 17.854 33.9823 17.438C32.7183 17.022 31.7343 16.438 31.0303 15.686C30.3263 14.934 29.9503 14.062 29.9023 13.07H34.4383C34.5343 13.47 34.7583 13.822 35.1103 14.126C35.4783 14.43 35.9503 14.662 36.5263 14.822C37.1023 14.966 37.7823 15.038 38.5663 15.038C39.6223 15.038 40.4223 14.926 40.9663 14.702C41.5103 14.478 41.7823 14.142 41.7823 13.694C41.7823 13.358 41.5823 13.102 41.1823 12.926C40.7983 12.75 40.1023 12.622 39.0943 12.542L36.5983 12.35C35.0303 12.238 33.7823 11.99 32.8543 11.606C31.9263 11.222 31.2623 10.734 30.8623 10.142C30.4783 9.55002 30.2863 8.88601 30.2863 8.15001C30.2863 7.14201 30.5983 6.30201 31.2223 5.63001C31.8623 4.95801 32.7423 4.45401 33.8623 4.11802C34.9823 3.78201 36.2943 3.61401 37.7983 3.61401C39.3023 3.61401 40.6383 3.81401 41.8063 4.21401C42.9903 4.61401 43.9343 5.16601 44.6383 5.87001C45.3583 6.57401 45.7663 7.39801 45.8623 8.34201H41.3263C41.2623 8.02201 41.0863 7.72601 40.7983 7.45401C40.5263 7.18201 40.1263 6.96601 39.5983 6.80602C39.0863 6.63001 38.4143 6.54201 37.5823 6.54201C36.6383 6.54201 35.9183 6.64601 35.4223 6.85401C34.9263 7.06201 34.6783 7.36601 34.6783 7.76601C34.6783 8.07001 34.8303 8.31001 35.1343 8.48601C35.4383 8.66201 36.0143 8.79001 36.8623 8.87001L40.1023 9.11001C41.6383 9.23801 42.8383 9.48602 43.7023 9.85402C44.5823 10.206 45.2063 10.67 45.5743 11.246C45.9423 11.822 46.1263 12.502 46.1263 13.286Z" fill="currentColor"/>
		<path d="M21.1054 18.062C19.4734 18.062 18.0094 17.758 16.7134 17.15C15.4334 16.542 14.4254 15.694 13.6894 14.606C12.9534 13.518 12.5854 12.246 12.5854 10.79C12.5854 9.36601 12.9374 8.11801 13.6414 7.04601C14.3454 5.97401 15.3135 5.13401 16.5455 4.52601C17.7935 3.91801 19.2014 3.61401 20.7694 3.61401C22.3694 3.61401 23.7454 3.96601 24.8974 4.67001C26.0494 5.37401 26.9374 6.36601 27.5614 7.64601C28.1854 8.92601 28.4974 10.43 28.4974 12.158H16.1614V9.35001H26.0495L24.4415 10.358C24.3934 9.60601 24.2094 8.97401 23.8895 8.46202C23.5855 7.93401 23.1774 7.53401 22.6654 7.26201C22.1534 6.97401 21.5455 6.83001 20.8414 6.83001C20.0734 6.83001 19.4094 6.98201 18.8494 7.28601C18.2894 7.59001 17.8494 8.01401 17.5294 8.55801C17.2254 9.10201 17.0735 9.73401 17.0735 10.454C17.0735 11.366 17.2735 12.142 17.6735 12.782C18.0895 13.422 18.6814 13.91 19.4494 14.246C20.2334 14.582 21.1855 14.75 22.3055 14.75C23.3295 14.75 24.3534 14.614 25.3774 14.342C26.4014 14.054 27.3214 13.654 28.1374 13.142V16.046C27.2094 16.686 26.1455 17.182 24.9455 17.534C23.7615 17.886 22.4814 18.062 21.1054 18.062Z" fill="currentColor"/>
		<path d="M0 3.99801H4.512L5.328 8.91801V17.678H0.864V8.55801L0 3.99801ZM11.856 3.80602V7.64601C11.424 7.55001 10.992 7.47801 10.56 7.43001C10.144 7.38201 9.76 7.35802 9.408 7.35802C8.64 7.35802 7.944 7.51801 7.32 7.83801C6.712 8.14201 6.224 8.63001 5.856 9.30201C5.504 9.97401 5.328 10.846 5.328 11.918L4.44 10.814C4.552 9.83801 4.736 8.91801 4.992 8.05401C5.248 7.19001 5.6 6.43001 6.048 5.77401C6.496 5.10201 7.048 4.57401 7.704 4.19001C8.376 3.80601 9.184 3.61401 10.128 3.61401C10.4 3.61401 10.688 3.63001 10.992 3.66201C11.296 3.69401 11.584 3.74201 11.856 3.80602Z" fill="currentColor"/>
	</symbol>

	<symbol id="payment-visa" width="32" height="14" viewBox="0 0 32 10"  fill="none">
		<path d="M15.8442 0.858161L13.7071 11.1757H11.1208L13.2611 0.858161H15.8442ZM26.7239 7.51987L28.0843 3.64489L28.8685 7.51987H26.7239ZM29.6079 11.1757H32L29.913 0.858161H27.7055C27.7023 0.858161 27.6981 0.858161 27.6949 0.858161C27.2051 0.858161 26.7847 1.16767 26.6076 1.60716L26.6044 1.61487L22.7261 11.1757H25.4404L25.9803 9.6336H29.2974L29.6079 11.1757ZM22.8594 7.80735C22.8701 5.08341 19.2115 4.93361 19.2371 3.71648C19.2457 3.34639 19.586 2.95206 20.3329 2.85183C20.4716 2.83751 20.6316 2.8287 20.7938 2.8287C21.5524 2.8287 22.2715 3.00713 22.9117 3.32656L22.8829 3.31334L23.3364 1.12472C22.6183 0.837233 21.7871 0.669808 20.9186 0.666504H20.9176C18.3612 0.666504 16.5634 2.07088 16.5473 4.07887C16.5313 5.56365 17.8309 6.39086 18.8114 6.88652C19.8197 7.3921 20.1579 7.71703 20.1526 8.16754C20.1462 8.86146 19.3502 9.16547 18.6055 9.17759C18.5714 9.17869 18.5297 9.17869 18.4892 9.17869C17.5599 9.17869 16.685 8.93747 15.921 8.5112L15.9499 8.52552L15.4815 10.7857C16.3201 11.1327 17.2921 11.3332 18.3099 11.3332C18.326 11.3332 18.342 11.3332 18.358 11.3332H18.3558C21.0723 11.3332 22.8488 9.94862 22.8584 7.80405L22.8594 7.80735ZM12.1494 0.858161L7.96052 11.1757H5.22699L3.16564 2.93994C3.12617 2.53901 2.88824 2.20416 2.55748 2.03674L2.55108 2.03343C1.81702 1.66113 0.963457 1.35823 0.0704189 1.16767L0 1.15556L0.0618833 0.857059H4.46199C5.06162 0.857059 5.55988 1.30976 5.65271 1.90126L5.65377 1.90786L6.74313 7.87895L9.43398 0.855957L12.1494 0.858161Z" fill="currentColor"/>
</symbol>

	<symbol id="payment-mastercard" width="22" height="15" viewBox="0 0 22 15" fill="none">
		<path d="M11.1187 2.34098C11.9127 2.95451 12.5546 3.7378 12.9956 4.63158C13.4367 5.52536 13.6655 6.50619 13.6646 7.49985C13.6652 8.49318 13.4363 9.47363 12.9952 10.3671C12.5542 11.2605 11.9125 12.0435 11.1187 12.6568C10.3248 12.0434 9.68305 11.2602 9.24199 10.3666C8.80093 9.47302 8.57211 8.49237 8.57287 7.49888C8.57211 6.50539 8.80093 5.52475 9.24199 4.63115C9.68305 3.73755 10.3248 2.95441 11.1187 2.34098ZM10.2655 1.77914C9.42503 2.48537 8.75035 3.36283 8.2881 4.35088C7.82586 5.33892 7.58708 6.41399 7.58826 7.50178C7.58712 8.58909 7.82573 9.66369 8.28762 10.6514C8.74951 11.6391 9.42368 12.5163 10.2636 13.2225C9.24893 13.7832 8.1029 14.0727 6.93938 14.0622C5.77587 14.0518 4.63539 13.7418 3.63131 13.163C2.62724 12.5842 1.79454 11.7568 1.216 10.763C0.63745 9.76924 0.333202 8.64372 0.333496 7.49834C0.333791 6.35295 0.638618 5.22759 1.21768 4.23412C1.79673 3.24064 2.62986 2.41365 3.63423 1.83536C4.6386 1.25707 5.77924 0.947606 6.94276 0.937743C8.10628 0.927881 9.25118 1.21796 10.2655 1.77914ZM11.9739 13.2225C12.8137 12.5163 13.4879 11.6391 13.9498 10.6514C14.4117 9.66369 14.6503 8.58909 14.6492 7.50178C14.6503 6.41399 14.4116 5.33892 13.9493 4.35088C13.4871 3.36283 12.8124 2.48537 11.9719 1.77914C12.9862 1.21796 14.1321 0.927881 15.2956 0.937743C16.4592 0.947606 17.5998 1.25707 18.6042 1.83536C19.6085 2.41365 20.4417 3.24064 21.0207 4.23412C21.5998 5.22759 21.9046 6.35295 21.9049 7.49834C21.9052 8.64372 21.601 9.76924 21.0224 10.763C20.4439 11.7568 19.6112 12.5842 18.6071 13.163C17.603 13.7418 16.4625 14.0518 15.299 14.0622C14.1355 14.0727 12.9895 13.7832 11.9748 13.2225H11.9739Z" fill="currentColor"/>
	</symbol>

	<symbol id="payment-mir"  width="32" height="10" viewBox="0 0 32 10" fill="none">
		<path d="M23.0861 4.40332V9.43757H25.8459V6.45431H28.9737C30.2892 6.44499 31.4069 5.59196 31.8301 4.40332H23.0861Z" fill="currentColor"/>
		<path d="M22.7181 0.254639C22.8791 2.31029 24.8017 3.9371 27.1476 3.9371C27.1568 3.9371 31.945 3.9371 31.945 3.9371C31.9818 3.75064 32.0002 3.55487 32.0002 3.35443C32.0002 1.64838 30.6433 0.268623 28.9645 0.254639H22.7181Z" fill="currentColor"/>
		<path d="M18.6332 3.88582C18.6654 3.82989 18.716 3.79726 18.7804 3.79726C18.8724 3.79726 18.9414 3.87184 18.946 3.9604V9.39086H21.7058V0.254639H18.946C18.5964 0.268623 18.2009 0.524996 18.0537 0.846629L15.8596 5.61984C15.855 5.63849 15.8458 5.65713 15.8366 5.67578C15.8044 5.72239 15.7492 5.75502 15.6848 5.75502C15.5836 5.75502 15.5008 5.67111 15.5008 5.56856V0.254639H12.741V9.39086H15.5008C15.8458 9.37222 16.2322 9.11584 16.3794 8.79887L18.6332 3.89981C18.6286 3.89514 18.6332 3.89048 18.6332 3.88582Z" fill="currentColor"/>
		<path d="M8.33003 4.04433L6.71554 9.39088H4.72848L3.11859 4.03967C3.10479 3.95576 3.03119 3.89051 2.9392 3.89051C2.838 3.89051 2.75981 3.97441 2.75981 4.0723V9.38622H0V0.25H2.36884H3.07259C3.57855 0.25 4.11212 0.650875 4.25931 1.14032L5.60242 5.59189C5.67141 5.81564 5.7772 5.81098 5.8462 5.59189L7.18931 1.14032C7.3365 0.646214 7.87006 0.25 8.37602 0.25H9.07978H11.4486V9.38622H8.6888V4.0723C8.6888 4.0723 8.6888 4.0723 8.6888 4.06764C8.6888 3.96509 8.60601 3.88584 8.50941 3.88584C8.41742 3.89051 8.34383 3.95576 8.33003 4.04433Z" fill="currentColor"/>
</symbol>

<symbol id="telegram" width="18" height="15" viewBox="0 0 18 15" fill="none">
	<path d="M16.4654 0.132424C16.4654 0.132424 18.1306 -0.516862 17.9918 1.05998C17.9455 1.70927 17.5293 3.98177 17.2055 6.4398L16.0954 13.7211C16.0954 13.7211 16.0029 14.7878 15.1703 14.9733C14.3377 15.1588 13.0889 14.324 12.8576 14.1385C12.6726 13.9994 9.38863 11.9124 8.23226 10.8921C7.90848 10.6138 7.53845 10.0572 8.27851 9.40796L13.1352 4.77022C13.6902 4.21367 14.2453 2.9151 11.9326 4.49195L5.45705 8.89783C5.45705 8.89783 4.71699 9.36159 3.3294 8.94421L0.322895 8.01665C0.322895 8.01665 -0.787196 7.32099 1.10921 6.62529C5.73459 4.44553 11.4238 2.2194 16.4654 0.132424Z" fill="currentColor"/>
</symbol>

<symbol id="vk" width="20" height="12" viewBox="0 0 20 12" fill="none">
	<path d="M12.1106 5.59545C11.7449 5.45794 11.7449 4.93278 11.7222 4.56707C11.6308 3.26442 12.0879 1.27569 11.5394 0.430166C11.151 -0.0730509 9.27636 -0.0269716 8.13388 0.0417819C7.81352 0.0878613 7.42513 0.155884 7.15085 0.293391C6.87657 0.430898 6.60229 0.6591 6.60229 0.864629C6.60229 1.16159 7.28836 1.11624 7.53924 1.50462C7.81352 1.91641 7.81352 2.80728 7.81352 3.5387C7.81352 4.38422 7.67601 5.50475 7.33371 5.5501C6.80782 5.57278 6.51086 5.04689 6.23658 4.6585C5.68801 3.90441 5.13945 2.96673 4.72766 2.05245C4.52213 1.57264 4.4073 1.04675 4.11034 0.841224C3.6532 0.520862 2.83036 0.498188 2.03018 0.520862C1.29876 0.543536 0.246983 0.452109 0.0414545 0.886572C-0.118726 1.36638 0.224309 1.82352 0.407164 2.21264C1.34411 4.24671 2.34981 6.02991 3.58445 7.72096C4.72766 9.2979 5.80138 10.5552 7.90421 11.2179C8.49886 11.4007 11.1042 11.9266 11.6301 11.2179C11.8129 10.9436 11.7676 10.3263 11.859 9.86913C11.9504 9.412 12.0645 8.95486 12.499 8.93219C12.8647 8.90951 13.0702 9.22914 13.2992 9.45808C13.5508 9.70969 13.7563 9.91521 13.9392 10.1441C14.3736 10.5786 14.8308 11.1725 15.3793 11.4015C16.1334 11.7218 17.2993 11.6304 18.3964 11.5843C19.288 11.5616 19.928 11.3788 19.9968 10.8529C20.0429 10.4411 19.585 9.84719 19.3107 9.50416C18.6246 8.65864 18.305 8.40703 17.5275 7.62953C17.1845 7.28649 16.75 6.92078 16.75 6.50972C16.7273 6.25812 16.9329 6.02991 17.1157 5.77831C17.9159 4.58975 18.7161 3.74423 19.4475 2.50959C19.653 2.14388 20.1335 1.29836 19.9507 0.886572C19.7452 0.429435 18.602 0.56621 17.8932 0.56621C16.9789 0.56621 15.7904 0.497456 15.5614 0.680311C15.127 0.977268 14.9441 1.45781 14.7386 1.91495C14.2815 2.96673 13.6641 4.04045 13.0241 4.84063C12.7952 5.11491 12.3615 5.68615 12.1099 5.59472L12.1106 5.59545Z" fill="currentColor"/>
</symbol>

<symbol id="whatsapp" width="19" height="20" viewBox="0 0 19 20">
	<path d="M9.375 0C4.1875 0 0 4.1875 0 9.375C0 11.5 0.6875 13.5 2 15.125L0.6875 19.125C0.625 19.375 0.6875 19.625 0.875 19.8125C0.9375 19.9375 1.125 20 1.25 20C1.3125 20 1.4375 20 1.5 19.9375L5.8125 18C6.9375 18.5 8.125 18.75 9.375 18.75C14.5625 18.75 18.75 14.5625 18.75 9.375C18.75 4.1875 14.5625 0 9.375 0ZM14.8125 12.8125C14.5625 13.5625 13.625 14.1875 12.8125 14.3125C12.625 14.375 12.4375 14.375 12.1875 14.375C11.6875 14.375 10.9375 14.25 9.625 13.6875C8.125 13.0625 6.625 11.75 5.4375 10.0625V10C5.0625 9.4375 4.375 8.375 4.375 7.25C4.375 5.875 5.0625 5.1875 5.3125 4.875C5.625 4.5625 6.0625 4.375 6.5625 4.375C6.6875 4.375 6.75 4.375 6.875 4.375C7.3125 4.375 7.625 4.5 7.9375 5.125L8.1875 5.625C8.375 6.125 8.625 6.6875 8.6875 6.75C8.875 7.125 8.875 7.4375 8.6875 7.75C8.625 7.9375 8.5 8.0625 8.375 8.1875C8.3125 8.3125 8.25 8.375 8.1875 8.375C8.125 8.4375 8.125 8.4375 8.0625 8.5C8.25 8.8125 8.625 9.375 9.125 9.8125C9.875 10.5 10.4375 10.6875 10.75 10.8125C10.875 10.6875 11 10.4375 11.1875 10.25L11.25 10.125C11.5625 9.6875 12.0625 9.5625 12.5625 9.75C12.8125 9.875 14.1875 10.5 14.1875 10.5L14.3125 10.5625C14.5 10.6875 14.75 10.75 14.875 11C15.125 11.5625 14.9375 12.375 14.8125 12.8125Z" fill="currentColor"/>
</symbol>

<symbol id="appstore" width="138" height="40" viewBox="0 0 138 40">
	<path d="M132.889 0.801252C135.255 0.801252 137.181 2.685 137.181 5V35C137.181 37.315 135.255 39.1988 132.889 39.1988H5.11111C2.74467 39.1988 0.819055 37.315 0.819055 35V5C0.819055 2.685 2.74467 0.801252 5.11111 0.801252H132.889ZM132.889 2.11397e-06H5.11111C2.30128 2.11397e-06 0 2.25125 0 5V35C0 37.7487 2.30128 40 5.11111 40H132.889C135.699 40 138 37.7487 138 35V5C138 2.25125 135.699 2.11397e-06 132.889 2.11397e-06Z" fill="currentColor"/>
	<path d="M30.7975 19.784C30.7679 16.561 33.4952 14.993 33.6199 14.92C32.0753 12.717 29.6812 12.416 28.84 12.392C26.8292 12.185 24.8788 13.569 23.8546 13.569C22.8099 13.569 21.2326 12.412 19.5326 12.446C17.3451 12.479 15.2986 13.718 14.1762 15.642C11.8598 19.565 13.5874 25.33 15.8066 28.501C16.9168 30.054 18.214 31.788 19.9119 31.727C21.573 31.66 22.1935 30.691 24.198 30.691C26.1842 30.691 26.7669 31.727 28.4985 31.688C30.2813 31.66 31.4037 30.128 32.475 28.561C33.7579 26.781 34.2731 25.028 34.2935 24.938C34.2516 24.924 30.8312 23.647 30.7975 19.784Z" fill="currentColor"/>
	<path d="M27.5264 10.306C28.4198 9.21304 29.0311 7.72604 28.8614 6.21704C27.5683 6.27304 25.9512 7.09204 25.0199 8.16104C24.196 9.10304 23.46 10.647 23.6501 12.099C25.1027 12.205 26.5941 11.382 27.5264 10.306Z" fill="currentColor"/>
	<path d="M54.8372 31.5039H52.5157L51.2441 27.5949H46.824L45.6127 31.5039H43.3525L47.7317 18.1959H50.4365L54.8372 31.5039ZM50.8608 25.9549L49.7108 22.4799C49.5891 22.1249 49.3612 21.2889 49.0248 19.9729H48.984C48.85 20.5389 48.6344 21.3749 48.3379 22.4799L47.2084 25.9549H50.8608Z" fill="currentColor"/>
	<path d="M66.0989 26.5879C66.0989 28.2199 65.6481 29.5099 64.7465 30.4569C63.939 31.2999 62.9362 31.7209 61.7392 31.7209C60.4471 31.7209 59.5189 31.2669 58.9536 30.3589H58.9127V35.4139H56.7333V25.0669C56.7333 24.0409 56.7057 22.9879 56.6526 21.9079H58.5693L58.6909 23.4289H58.7318C59.4586 22.2829 60.5616 21.7109 62.0417 21.7109C63.1989 21.7109 64.1649 22.1579 64.9377 23.0529C65.7125 23.9489 66.0989 25.1269 66.0989 26.5879ZM63.8787 26.6659C63.8787 25.7319 63.664 24.9619 63.2326 24.3559C62.7614 23.7239 62.1286 23.4079 61.3354 23.4079C60.7977 23.4079 60.3091 23.5839 59.8726 23.9309C59.4351 24.2809 59.1489 24.7379 59.0149 25.3039C58.9475 25.5679 58.9137 25.7839 58.9137 25.9539V27.5539C58.9137 28.2519 59.1325 28.8409 59.57 29.3219C60.0075 29.8029 60.5759 30.0429 61.2751 30.0429C62.0959 30.0429 62.7348 29.7329 63.1917 29.1149C63.6497 28.4959 63.8787 27.6799 63.8787 26.6659Z" fill="currentColor"/>
	<path d="M77.3814 26.5879C77.3814 28.2199 76.9306 29.5099 76.0279 30.4569C75.2214 31.2999 74.2186 31.7209 73.0216 31.7209C71.7295 31.7209 70.8013 31.2669 70.2371 30.3589H70.1962V35.4139H68.0168V25.0669C68.0168 24.0409 67.9892 22.9879 67.936 21.9079H69.8527L69.9743 23.4289H70.0152C70.741 22.2829 71.844 21.7109 73.3252 21.7109C74.4813 21.7109 75.4473 22.1579 76.2222 23.0529C76.994 23.9489 77.3814 25.1269 77.3814 26.5879ZM75.1611 26.6659C75.1611 25.7319 74.9454 24.9619 74.514 24.3559C74.0428 23.7239 73.4121 23.4079 72.6178 23.4079C72.0791 23.4079 71.5915 23.5839 71.154 23.9309C70.7165 24.2809 70.4313 24.7379 70.2974 25.3039C70.2309 25.5679 70.1962 25.7839 70.1962 25.9539V27.5539C70.1962 28.2519 70.4149 28.8409 70.8504 29.3219C71.2879 29.8019 71.8563 30.0429 72.5575 30.0429C73.3784 30.0429 74.0172 29.7329 74.4742 29.1149C74.9321 28.4959 75.1611 27.6799 75.1611 26.6659Z" fill="currentColor"/>
	<path d="M89.9956 27.772C89.9956 28.904 89.5939 29.825 88.7874 30.536C87.9011 31.313 86.6673 31.701 85.0818 31.701C83.618 31.701 82.4445 31.425 81.5562 30.872L82.0611 29.095C83.0179 29.661 84.0678 29.945 85.2116 29.945C86.0325 29.945 86.6714 29.763 87.1303 29.401C87.5873 29.039 87.8152 28.553 87.8152 27.947C87.8152 27.407 87.6271 26.952 87.2499 26.583C86.8748 26.214 86.2482 25.871 85.3731 25.554C82.9914 24.685 81.8015 23.412 81.8015 21.738C81.8015 20.644 82.2186 19.747 83.0537 19.049C83.8858 18.35 84.9959 18.001 86.3841 18.001C87.622 18.001 88.6504 18.212 89.4712 18.633L88.9264 20.371C88.1597 19.963 87.2929 19.759 86.3228 19.759C85.5561 19.759 84.9571 19.944 84.5278 20.312C84.1649 20.641 83.9829 21.042 83.9829 21.517C83.9829 22.043 84.1904 22.478 84.6075 22.82C84.9704 23.136 85.6297 23.478 86.5865 23.847C87.757 24.308 88.6166 24.847 89.1697 25.465C89.7206 26.081 89.9956 26.852 89.9956 27.772Z" fill="currentColor"/>
	<path d="M97.2012 23.508H94.7989V28.167C94.7989 29.352 95.2221 29.944 96.0706 29.944C96.46 29.944 96.7831 29.911 97.0386 29.845L97.0989 31.464C96.6696 31.621 96.1043 31.7 95.4041 31.7C94.5434 31.7 93.8708 31.443 93.3852 30.93C92.9017 30.416 92.6584 29.554 92.6584 28.343V23.506H91.2273V21.906H92.6584V20.149L94.7989 19.517V21.906H97.2012V23.508Z" fill="currentColor"/>
	<path d="M108.04 26.6269C108.04 28.1019 107.608 29.3129 106.748 30.2599C105.845 31.2349 104.647 31.7209 103.154 31.7209C101.714 31.7209 100.568 31.2539 99.7137 30.3199C98.8592 29.3859 98.4319 28.2069 98.4319 26.7859C98.4319 25.2989 98.8714 24.0809 99.7536 23.1339C100.634 22.1859 101.822 21.7119 103.315 21.7119C104.754 21.7119 105.913 22.1789 106.786 23.1139C107.623 24.0209 108.04 25.1919 108.04 26.6269ZM105.779 26.6959C105.779 25.8109 105.585 25.0519 105.194 24.4189C104.737 23.6529 104.084 23.2709 103.237 23.2709C102.361 23.2709 101.696 23.6539 101.239 24.4189C100.847 25.0529 100.654 25.8239 100.654 26.7359C100.65s4 27.6209 100.847 28.3799 101.239 29.0119C101.71 29.7779 102.368 30.1599 103.218 30.1599C104.05 30.1599 104.703 29.7699 105.174 28.9919C105.576 28.3469 105.779 27.5799 105.779 26.6959Z" fill="currentColor"/>
	<path d="M115.124 23.7829C114.908 23.7439 114.678 23.7239 114.437 23.7239C113.67 23.7239 113.077 24.0069 112.66 24.5739C112.297 25.0739 112.115 25.7059 112.115 26.4689V31.5039H109.937L109.958 24.9299C109.958 23.8239 109.93 22.8169 109.876 21.9089H111.774L111.854 23.7449H111.914C112.144 23.1139 112.507 22.6059 113.004 22.2249C113.489 21.8819 114.014 21.7109 114.579 21.7109C114.78 21.7109 114.962 21.7249 115.124 21.7499V23.7829Z" fill="currentColor"/>
	<path d="M124.871 26.252C124.871 26.634 124.845 26.956 124.791 27.219H118.253C118.278 28.167 118.594 28.892 119.201 29.392C119.752 29.839 120.465 30.063 121.34 30.063C122.308 30.063 123.191 29.912 123.985 29.609L124.327 31.089C123.399 31.485 122.303 31.682 121.038 31.682C119.517 31.682 118.323 31.244 117.454 30.369C116.588 29.494 116.153 28.319 116.153 26.845C116.153 25.398 116.557 24.193 117.365 23.232C118.212 22.206 119.356 21.693 120.795 21.693C122.209 21.693 123.279 22.206 124.006 23.232C124.581 24.047 124.871 25.055 124.871 26.252ZM122.792 25.699C122.807 25.067 122.665 24.521 122.369 24.06C121.992 23.467 121.412 23.171 120.632 23.171C119.92 23.171 119.34 23.46 118.898 24.04C118.535 24.501 118.319 25.054 118.253 25.698H122.792V25.699Z" fill="currentColor"/>
</symbol>

<symbol id="googleplay" width="138" height="40" viewBox="0 0 138 40">
	<path d="M132.628 0.801252C134.99 0.801252 136.912 2.685 136.912 5V35C136.912 37.315 134.99 39.1988 132.628 39.1988H5.10109C2.73928 39.1988 0.817449 37.315 0.817449 35V5C0.817449 2.685 2.73928 0.801252 5.10109 0.801252H132.628ZM132.628 2.11397e-06H5.10109C2.29676 2.11397e-06 0 2.25125 0 5V35C0 37.7487 2.29676 40 5.10109 40H132.628C135.433 40 137.729 37.7487 137.729 35V5C137.729 2.25125 135.433 2.11397e-06 132.628 2.11397e-06Z" fill="currentColor"/>
	<path d="M69.5122 21.7525C67.1159 21.7525 65.1584 23.54 65.1584 26.0063C65.1584 28.4525 67.1159 30.2588 69.5122 30.2588C71.9135 30.2588 73.871 28.4525 73.871 26.0063C73.871 23.54 71.9135 21.7525 69.5122 21.7525ZM69.5122 28.5838C68.1974 28.5838 67.0662 27.52 67.0662 26.0063C67.0662 24.4725 68.1974 23.4275 69.5122 23.4275C70.827 23.4275 71.9632 24.4725 71.9632 26.0063C71.9632 27.52 70.827 28.5838 69.5122 28.5838ZM60.0127 21.7525C57.6113 21.7525 55.6589 23.54 55.6589 26.0063C55.6589 28.4525 57.6113 30.2588 60.0127 30.2588C62.4127 30.2588 64.3664 28.4525 64.3664 26.0063C64.3664 23.54 62.4127 21.7525 60.0127 21.7525ZM60.0127 28.5838C58.6966 28.5838 57.5616 27.52 57.5616 26.0063C57.5616 24.4725 58.6966 23.4275 60.0127 23.4275C61.3275 23.4275 62.4586 24.4725 62.4586 26.0063C62.4586 27.52 61.3275 28.5838 60.0127 28.5838ZM48.7087 23.0563V24.8638H53.1122C52.9834 25.8738 52.639 26.6163 52.1111 27.1338C51.4683 27.7588 50.4673 28.4525 48.7087 28.4525C45.9987 28.4525 43.8767 26.3088 43.8767 23.6525C43.8767 20.9963 45.9987 18.8525 48.7087 18.8525C50.1739 18.8525 51.2401 19.4138 52.0269 20.1413L53.3264 18.8675C52.2259 17.8375 50.7618 17.0463 48.7087 17.0463C44.9925 17.0463 41.8694 20.01 41.8694 23.6525C41.8694 27.295 44.9925 30.2588 48.7087 30.2588C50.7172 30.2588 52.2259 29.6138 53.4119 28.4038C54.6272 27.2125 55.0059 25.5375 55.0059 24.185C55.0059 23.765 54.9702 23.3788 54.9065 23.0563H48.7087ZM94.9321 24.4575C94.5738 23.5063 93.4681 21.7525 91.216 21.7525C88.9843 21.7525 87.1262 23.4763 87.1262 26.0063C87.1262 28.3888 88.9651 30.2588 91.4302 30.2588C93.4235 30.2588 94.5738 29.0675 95.0469 28.3738L93.5676 27.4075C93.0741 28.115 92.402 28.5838 91.4302 28.5838C90.4649 28.5838 89.7724 28.15 89.3286 27.295L95.1323 24.9413L94.9321 24.4575ZM89.0149 25.8738C88.9651 24.2338 90.3144 23.3938 91.281 23.3938C92.0385 23.3938 92.6813 23.765 92.8955 24.2963L89.0149 25.8738ZM84.2976 30H86.2054V17.5H84.2976V30ZM81.1732 22.7H81.1095C80.681 22.2025 79.8635 21.7525 78.828 21.7525C76.655 21.7525 74.6681 23.6225 74.6681 26.02C74.6681 28.4038 76.655 30.2588 78.828 30.2588C79.8635 30.2588 80.681 29.805 81.1095 29.2925H81.1732V29.9025C81.1732 31.5288 80.2869 32.4025 78.8573 32.4025C77.6917 32.4025 76.9687 31.5775 76.6703 30.8838L75.0111 31.5625C75.4893 32.69 76.7557 34.0775 78.8573 34.0775C81.0942 34.0775 82.9816 32.7875 82.9816 29.6488V22.0113H81.1732V22.7ZM78.9912 28.5838C77.6764 28.5838 76.5759 27.505 76.5759 26.02C76.5759 24.5213 77.6764 23.4275 78.9912 23.4275C80.2869 23.4275 81.3084 24.5213 81.3084 26.02C81.3084 27.505 80.2869 28.5838 78.9912 28.5838ZM103.864 17.5H99.3012V30H101.204V25.2638H103.864C105.977 25.2638 108.05 23.765 108.05 21.3813C108.05 18.9988 105.972 17.5 103.864 17.5ZM103.914 23.525H101.204V19.2388H103.914C105.335 19.2388 106.146 20.395 106.146 21.3813C106.146 22.3488 105.335 23.525 103.914 23.525ZM115.676 21.7288C114.301 21.7288 112.871 22.3238 112.283 23.6425L113.972 24.3363C114.335 23.6425 115.004 23.4175 115.71 23.4175C116.697 23.4175 117.698 23.9988 117.714 25.025V25.1563C117.369 24.9613 116.632 24.6725 115.725 24.6725C113.907 24.6725 112.054 25.6538 112.054 27.485C112.054 29.16 113.543 30.2388 115.218 30.2388C116.498 30.2388 117.205 29.6725 117.649 29.0138H117.714V29.98H119.551V25.185C119.551 22.9688 117.863 21.7288 115.676 21.7288ZM115.446 28.5788C114.824 28.5788 113.957 28.2763 113.957 27.52C113.957 26.5525 115.038 26.1813 115.974 26.1813C116.812 26.1813 117.205 26.3625 117.714 26.6013C117.564 27.7588 116.548 28.5788 115.446 28.5788ZM126.246 22.0025L124.059 27.4213H123.994L121.733 22.0025H119.681L123.079 29.575L121.14 33.7888H123.128L128.363 22.0025H126.246ZM109.095 30H111.003V17.5H109.095V30Z" fill="currentColor"/>
	<path d="M10.6465 7.53869C10.3468 7.84619 10.1733 8.32494 10.1733 8.94494V31.0599C10.1733 31.6799 10.3468 32.1587 10.6465 32.4662L10.7204 32.5337L23.3635 20.1462V19.8537L10.7204 7.46619L10.6465 7.53869Z" fill="url(#paint0_linear_181_21474)"/>
	<path d="M27.5727 24.2775L23.363 20.1462V19.8537L27.5778 15.7225L27.6722 15.7762L32.6636 18.56C34.0881 19.35 34.0881 20.65 32.6636 21.445L27.6722 24.2237L27.5727 24.2775Z" fill="url(#paint1_linear_181_21474)"/>
	<path d="M27.6714 24.2237L23.3623 20L10.6453 32.4662C11.1184 32.9537 11.8899 33.0125 12.7673 32.525L27.6714 24.2237Z" fill="url(#paint2_linear_181_21474)"/>
	<path d="M27.6714 15.7763L12.7673 7.475C11.8899 6.9925 11.1184 7.05125 10.6453 7.53875L23.3623 20L27.6714 15.7763Z" fill="url(#paint3_linear_181_21474)"/>
	<path d="M49.4398 11.4492V12.3984H44.7864V11.4492H49.4398ZM45.1153 11.4492V13.9673H43.9706L43.9136 11.4492H45.1153ZM50.3389 11.4492L50.2468 13.9717H49.1284V11.4492H50.3389ZM48.6898 6V6.95361H45.6811V6H48.6898ZM49.5802 6V12.3984H48.3784V6H49.5802ZM45.4881 6H46.6942L46.532 8.60156C46.5086 9.02051 46.4647 9.39404 46.4004 9.72217C46.339 10.0503 46.263 10.3418 46.1723 10.5967C46.0817 10.8516 45.9808 11.0757 45.8697 11.269C45.7615 11.4595 45.646 11.625 45.5232 11.7656C45.4033 11.9062 45.2791 12.0278 45.1504 12.1304C45.0247 12.23 44.9004 12.3193 44.7776 12.3984H44.1066V11.4492H44.396C44.4808 11.376 44.57 11.2734 44.6636 11.1416C44.7601 11.0098 44.8522 10.8354 44.9399 10.6187C45.0305 10.4019 45.1095 10.1279 45.1767 9.79688C45.244 9.46582 45.2922 9.06738 45.3215 8.60156L45.4881 6Z" fill="currentColor"/>
	<path d="M50.9791 10.0693V9.97705C50.9791 9.62842 51.0288 9.30762 51.1282 9.01465C51.2276 8.71875 51.3724 8.4624 51.5624 8.24561C51.7525 8.02881 51.9849 7.86035 52.2598 7.74023C52.5346 7.61719 52.8475 7.55566 53.1984 7.55566C53.5551 7.55566 53.8709 7.61719 54.1457 7.74023C54.4235 7.86035 54.6574 8.02881 54.8475 8.24561C55.0375 8.4624 55.1823 8.71875 55.2817 9.01465C55.3811 9.30762 55.4308 9.62842 55.4308 9.97705V10.0693C55.4308 10.415 55.3811 10.7358 55.2817 11.0317C55.1823 11.3247 55.0375 11.5811 54.8475 11.8008C54.6574 12.0176 54.425 12.186 54.1501 12.3062C53.8753 12.4263 53.5609 12.4863 53.2071 12.4863C52.8563 12.4863 52.5419 12.4263 52.2642 12.3062C51.9864 12.186 51.7525 12.0176 51.5624 11.8008C51.3724 11.5811 51.2276 11.3247 51.1282 11.0317C51.0288 10.7358 50.9791 10.415 50.9791 10.0693ZM52.137 9.97705V10.0693C52.137 10.2773 52.1574 10.4722 52.1984 10.6538C52.2393 10.8354 52.3022 10.9951 52.387 11.1328C52.4718 11.2705 52.5814 11.3789 52.7159 11.458C52.8533 11.5342 53.0171 11.5723 53.2071 11.5723C53.3943 11.5723 53.5551 11.5342 53.6896 11.458C53.8241 11.3789 53.9337 11.2705 54.0185 11.1328C54.1062 10.9951 54.1706 10.8354 54.2115 10.6538C54.2524 10.4722 54.2729 10.2773 54.2729 10.0693V9.97705C54.2729 9.77197 54.2524 9.58008 54.2115 9.40137C54.1706 9.21973 54.1062 9.06006 54.0185 8.92236C53.9337 8.78174 53.8226 8.67188 53.6852 8.59277C53.5507 8.51074 53.3884 8.46973 53.1984 8.46973C53.0112 8.46973 52.8504 8.51074 52.7159 8.59277C52.5814 8.67188 52.4718 8.78174 52.387 8.92236C52.3022 9.06006 52.2393 9.21973 52.1984 9.40137C52.1574 9.58008 52.137 9.77197 52.137 9.97705Z" fill="currentColor"/>
	<path d="M58.3999 11.5723C58.5636 11.5723 58.7098 11.54 58.8385 11.4756C58.9671 11.4111 59.0695 11.3203 59.1455 11.2031C59.2244 11.0859 59.2668 10.9497 59.2727 10.7944H60.3648C60.3589 11.1167 60.2683 11.4053 60.0929 11.6602C59.9174 11.915 59.6835 12.1172 59.3911 12.2666C59.1016 12.4131 58.7771 12.4863 58.4174 12.4863C58.0519 12.4863 57.7332 12.4248 57.4613 12.3018C57.1894 12.1787 56.9628 12.0073 56.7815 11.7876C56.6031 11.5679 56.4686 11.313 56.378 11.0229C56.2903 10.7329 56.2464 10.4224 56.2464 10.0913V9.95068C56.2464 9.61963 56.2903 9.30908 56.378 9.01904C56.4686 8.729 56.6031 8.47412 56.7815 8.25439C56.9628 8.03467 57.1894 7.86328 57.4613 7.74023C57.7332 7.61719 58.0505 7.55566 58.413 7.55566C58.7961 7.55566 59.1323 7.63037 59.4218 7.77979C59.7142 7.9292 59.9423 8.14014 60.106 8.4126C60.2727 8.68506 60.3589 9.00586 60.3648 9.375H59.2727C59.2668 9.20508 59.2288 9.05273 59.1587 8.91797C59.0885 8.7832 58.9891 8.6748 58.8604 8.59277C58.7318 8.51074 58.5753 8.46973 58.3911 8.46973C58.1952 8.46973 58.0315 8.51074 57.8999 8.59277C57.7712 8.6748 57.6704 8.7876 57.5973 8.93115C57.5271 9.07178 57.4774 9.22998 57.4481 9.40576C57.4218 9.57861 57.4087 9.76025 57.4087 9.95068V10.0913C57.4087 10.2847 57.4218 10.4692 57.4481 10.645C57.4774 10.8208 57.5271 10.979 57.5973 11.1196C57.6704 11.2573 57.7712 11.3672 57.8999 11.4492C58.0315 11.5312 58.1981 11.5723 58.3999 11.5723Z" fill="currentColor"/>
	<path d="M63.619 7.64355V12.3984H62.4567V7.64355H63.619ZM65.1628 7.64355V8.54883H60.9392V7.64355H65.1628Z" fill="currentColor"/>
	<path d="M67.4652 11.8711L68.7371 7.64355H69.9783L68.0749 13.1191C68.031 13.2363 67.974 13.3638 67.9038 13.5015C67.8366 13.6392 67.7459 13.7695 67.6319 13.8926C67.5178 14.0186 67.3746 14.1211 67.2021 14.2002C67.0325 14.2793 66.8263 14.3188 66.5837 14.3188C66.4784 14.3188 66.3848 14.3115 66.303 14.2969C66.2211 14.2822 66.1348 14.2632 66.0442 14.2397V13.3696C66.0734 13.3726 66.107 13.374 66.1451 13.374C66.186 13.377 66.2211 13.3784 66.2503 13.3784C66.4199 13.3784 66.5603 13.3579 66.6714 13.3169C66.7825 13.2788 66.8717 13.2158 66.9389 13.1279C67.0091 13.043 67.0676 12.9316 67.1143 12.7939L67.4652 11.8711ZM66.838 7.64355L67.9126 11.146L68.1012 12.3721L67.3029 12.5171L65.588 7.64355H66.838Z" fill="currentColor"/>
	<path d="M73.9036 7.64355V8.56201H71.5834V7.64355H73.9036ZM71.8904 7.64355V12.3984H70.7282V7.64355H71.8904ZM74.7807 7.64355V12.3984H73.6141V7.64355H74.7807Z" fill="currentColor"/>
	<path d="M79.2542 9.59473V10.5044H76.82V9.59473H79.2542ZM77.184 7.64355V12.3984H76.0218V7.64355H77.184ZM80.0656 7.64355V12.3984H78.8989V7.64355H80.0656Z" fill="currentColor"/>
	<path d="M81.0917 10.0693V9.97705C81.0917 9.62842 81.1414 9.30762 81.2408 9.01465C81.3402 8.71875 81.485 8.4624 81.675 8.24561C81.8651 8.02881 82.0975 7.86035 82.3724 7.74023C82.6472 7.61719 82.9601 7.55566 83.311 7.55566C83.6677 7.55566 83.9835 7.61719 84.2583 7.74023C84.5361 7.86035 84.77 8.02881 84.9601 8.24561C85.1501 8.4624 85.2949 8.71875 85.3943 9.01465C85.4937 9.30762 85.5434 9.62842 85.5434 9.97705V10.0693C85.5434 10.415 85.4937 10.7358 85.3943 11.0317C85.2949 11.3247 85.1501 11.5811 84.9601 11.8008C84.77 12.0176 84.5376 12.186 84.2627 12.3062C83.9879 12.4263 83.6736 12.4863 83.3198 12.4863C82.9689 12.4863 82.6546 12.4263 82.3768 12.3062C82.099 12.186 81.8651 12.0176 81.675 11.8008C81.485 11.5811 81.3402 11.3247 81.2408 11.0317C81.1414 10.7358 81.0917 10.415 81.0917 10.0693ZM82.2496 9.97705V10.0693C82.2496 10.2773 82.2701 10.4722 82.311 10.6538C82.3519 10.8354 82.4148 10.9951 82.4996 11.1328C82.5844 11.2705 82.694 11.3789 82.8285 11.458C82.966 11.5342 83.1297 11.5723 83.3198 11.5723C83.5069 11.5723 83.6677 11.5342 83.8022 11.458C83.9367 11.3789 84.0464 11.2705 84.1311 11.1328C84.2189 10.9951 84.2832 10.8354 84.3241 10.6538C84.3651 10.4722 84.3855 10.2773 84.3855 10.0693V9.97705C84.3855 9.77197 84.3651 9.58008 84.3241 9.40137C84.2832 9.21973 84.2189 9.06006 84.1311 8.92236C84.0464 8.78174 83.9352 8.67188 83.7978 8.59277C83.6633 8.51074 83.501 8.46973 83.311 8.46973C83.1239 8.46973 82.963 8.51074 82.8285 8.59277C82.694 8.67188 82.5844 8.78174 82.4996 8.92236C82.4148 9.06006 82.3519 9.21973 82.311 9.40137C82.2701 9.58008 82.2496 9.77197 82.2496 9.97705Z" fill="currentColor"/>
	<path d="M91.3149 10.3857H89.8106L89.8018 9.59912H91.0386C91.2228 9.59912 91.3734 9.58008 91.4904 9.54199C91.6073 9.50391 91.6936 9.44678 91.7491 9.37061C91.8076 9.29443 91.8368 9.20215 91.8368 9.09375C91.8368 9 91.8193 8.91943 91.7842 8.85205C91.7491 8.78174 91.6965 8.72461 91.6263 8.68066C91.5591 8.63672 91.4728 8.60449 91.3676 8.58398C91.2652 8.56055 91.1453 8.54883 91.0079 8.54883H90.2228V12.3984H89.0606V7.64355H91.0079C91.3149 7.64355 91.5912 7.67139 91.8368 7.72705C92.0825 7.77979 92.2915 7.86035 92.464 7.96875C92.6365 8.07715 92.7681 8.21484 92.8588 8.38184C92.9523 8.5459 92.9991 8.73926 92.9991 8.96191C92.9991 9.1084 92.9669 9.24609 92.9026 9.375C92.8383 9.50391 92.7433 9.61816 92.6175 9.71777C92.4918 9.81738 92.3368 9.89941 92.1526 9.96387C91.9684 10.0254 91.7579 10.0635 91.5211 10.0781L91.3149 10.3857ZM91.3149 12.3984H89.4992L89.929 11.4932H91.3149C91.4845 11.4932 91.6249 11.4727 91.736 11.4316C91.8471 11.3877 91.929 11.3247 91.9816 11.2427C92.0371 11.1606 92.0649 11.061 92.0649 10.9438C92.0649 10.8296 92.0386 10.7314 91.986 10.6494C91.9363 10.5645 91.8559 10.5 91.7447 10.4561C91.6366 10.4092 91.4933 10.3857 91.3149 10.3857H90.1176L90.1263 9.59912H91.5167L91.8237 9.91113C92.1395 9.93164 92.4012 9.99609 92.6088 10.1045C92.8164 10.21 92.9713 10.3447 93.0737 10.5088C93.176 10.6699 93.2272 10.8472 93.2272 11.0405C93.2272 11.2661 93.1848 11.4639 93.1 11.6338C93.0152 11.8037 92.8909 11.9458 92.7272 12.0601C92.5634 12.1714 92.3632 12.2563 92.1263 12.3149C91.8895 12.3706 91.619 12.3984 91.3149 12.3984Z" fill="currentColor"/>
	<defs>
	<linearGradient id="paint0_linear_181_21474" x1="22.2409" y1="31.2902" x2="5.46188" y2="14.172" gradientUnits="userSpaceOnUse">
	<stop stop-color="#00A0FF"/>
	<stop offset="0.0066" stop-color="#00A1FF"/>
	<stop offset="0.2601" stop-color="#00BEFF"/>
	<stop offset="0.5122" stop-color="#00D2FF"/>
	<stop offset="0.7604" stop-color="#00DFFF"/>
	<stop offset="1" stop-color="#00E3FF"/>
	</linearGradient>
	<linearGradient id="paint1_linear_181_21474" x1="34.5185" y1="19.9986" x2="9.83241" y2="19.9986" gradientUnits="userSpaceOnUse">
	<stop stop-color="#FFE000"/>
	<stop offset="0.4087" stop-color="#FFBD00"/>
	<stop offset="0.7754" stop-color="#FFA500"/>
	<stop offset="1" stop-color="#FF9C00"/>
	</linearGradient>
	<linearGradient id="paint2_linear_181_21474" x1="25.3282" y1="17.7039" x2="2.57449" y2="-5.50988" gradientUnits="userSpaceOnUse">
	<stop stop-color="#FF3A44"/>
	<stop offset="1" stop-color="#C31162"/>
	</linearGradient>
	<linearGradient id="paint3_linear_181_21474" x1="7.44413" y1="39.8238" x2="17.6047" y2="29.4579" gradientUnits="userSpaceOnUse">
	<stop stop-color="#32A071"/>
	<stop offset="0.0685" stop-color="#2DA771"/>
	<stop offset="0.4762" stop-color="#15CF74"/>
	<stop offset="0.8009" stop-color="#06E775"/>
	<stop offset="1" stop-color="#00F076"/>
	</linearGradient>
	</defs>
	</symbol>
</svg>	